<svg xmlns="http://www.w3.org/2000/svg" xmlns:xlink="http://www.w3.org/1999/xlink" width="500" zoomAndPan="magnify" viewBox="0 0 375 374.999991" height="500" preserveAspectRatio="xMidYMid meet" version="1.0"><defs><g/></defs><rect x="-37.5" width="450" fill="#ffffff" y="-37.499999" height="449.999989" fill-opacity="1"/><rect x="-37.5" width="450" fill="#ffffff" y="-37.499999" height="449.999989" fill-opacity="1"/><g fill="#ffe4e4" fill-opacity="1"><g transform="translate(61.186869, 214.447529)"><g><path d="M 18.625 0 L 18.625 -2.5 L 28.15625 -2.5 L 28.15625 -71.859375 C 27.320312 -71.941406 26.109375 -71.941406 24.515625 -71.859375 C 22.929688 -71.785156 21.421875 -71.523438 19.984375 -71.078125 C 17.484375 -70.242188 15.421875 -68.992188 13.796875 -67.328125 C 12.171875 -65.660156 10.898438 -64.03125 9.984375 -62.4375 C 9.003906 -60.851562 8.097656 -58.941406 7.265625 -56.703125 C 6.429688 -54.472656 5.898438 -52.335938 5.671875 -50.296875 L 2.5 -50.296875 L 3.171875 -74.359375 L 70.734375 -74.359375 L 71.40625 -50.296875 L 68.234375 -50.296875 C 67.859375 -52.035156 67.347656 -53.984375 66.703125 -56.140625 C 66.054688 -58.296875 65.085938 -60.394531 63.796875 -62.4375 C 62.585938 -64.40625 61.128906 -66.179688 59.421875 -67.765625 C 57.722656 -69.359375 55.890625 -70.460938 53.921875 -71.078125 C 52.640625 -71.453125 51.203125 -71.695312 49.609375 -71.8125 C 48.023438 -71.925781 46.703125 -71.941406 45.640625 -71.859375 L 45.640625 -2.5 L 55.171875 -2.5 L 55.171875 0 Z M 18.625 0 "/></g></g></g><g fill="#ffe4e4" fill-opacity="1"><g transform="translate(141.113133, 214.447529)"><g><path d="M 32.921875 -74.359375 L 50.96875 -26.453125 L 68.578125 -74.359375 L 96.5 -74.359375 L 96.5 -71.859375 L 87.078125 -71.859375 L 87.078125 -2.5 L 96.5 -2.5 L 96.5 0 L 60.0625 0 L 60.0625 -2.5 L 69.59375 -2.5 L 69.59375 -68.34375 L 44.734375 0 L 42.453125 0 L 17.375 -68.34375 L 17.375 -17.03125 C 17.375 -13.851562 17.5625 -11.390625 17.9375 -9.640625 C 18.3125 -7.898438 18.878906 -6.539062 19.640625 -5.5625 C 20.242188 -4.726562 21.09375 -4.007812 22.1875 -3.40625 C 23.289062 -2.800781 24.675781 -2.5 26.34375 -2.5 L 26.34375 0 L 4.765625 0 L 4.765625 -2.5 C 6.273438 -2.644531 7.675781 -3.039062 8.96875 -3.6875 C 10.257812 -4.332031 11.242188 -5.070312 11.921875 -5.90625 C 12.523438 -6.65625 12.992188 -7.597656 13.328125 -8.734375 C 13.671875 -9.867188 13.9375 -11.003906 14.125 -12.140625 C 14.320312 -13.273438 14.4375 -14.332031 14.46875 -15.3125 C 14.507812 -16.300781 14.53125 -17.023438 14.53125 -17.484375 L 14.53125 -63.578125 C 14.53125 -64.179688 14.4375 -65.144531 14.25 -66.46875 C 14.0625 -67.789062 13.472656 -68.910156 12.484375 -69.828125 C 12.035156 -70.273438 11.46875 -70.628906 10.78125 -70.890625 C 10.101562 -71.160156 9.40625 -71.367188 8.6875 -71.515625 C 7.96875 -71.671875 7.304688 -71.765625 6.703125 -71.796875 C 6.097656 -71.835938 5.644531 -71.859375 5.34375 -71.859375 L 5.34375 -74.359375 Z M 32.921875 -74.359375 "/></g></g></g><g fill="#ffe4e4" fill-opacity="1"><g transform="translate(248.400434, 214.447529)"><g><path d="M 52 -53.25 C 50.707031 -57.101562 49.054688 -60.410156 47.046875 -63.171875 C 45.046875 -65.941406 43.023438 -68.007812 40.984375 -69.375 C 38.941406 -70.726562 36.953125 -71.59375 35.015625 -71.96875 C 33.085938 -72.351562 31.332031 -72.546875 29.75 -72.546875 C 28.15625 -72.546875 26.488281 -72.394531 24.75 -72.09375 C 23.007812 -71.789062 21.421875 -71.109375 19.984375 -70.046875 C 18.691406 -68.984375 17.816406 -67.847656 17.359375 -66.640625 C 16.910156 -65.429688 16.6875 -64.109375 16.6875 -62.671875 C 16.6875 -61.160156 16.929688 -59.796875 17.421875 -58.578125 C 17.921875 -57.367188 18.8125 -56.234375 20.09375 -55.171875 C 21.382812 -54.035156 22.671875 -53.238281 23.953125 -52.78125 C 25.242188 -52.332031 26.644531 -51.804688 28.15625 -51.203125 L 44.28125 -44.84375 C 46.695312 -43.863281 49.003906 -42.671875 51.203125 -41.265625 C 53.398438 -39.867188 55.367188 -37.84375 57.109375 -35.1875 C 58.171875 -33.53125 59.019531 -31.675781 59.65625 -29.625 C 60.300781 -27.582031 60.625 -25.351562 60.625 -22.9375 C 60.625 -21.800781 60.53125 -20.515625 60.34375 -19.078125 C 60.15625 -17.640625 59.773438 -16.101562 59.203125 -14.46875 C 58.640625 -12.84375 57.828125 -11.195312 56.765625 -9.53125 C 55.703125 -7.863281 54.335938 -6.273438 52.671875 -4.765625 C 49.953125 -2.347656 47.132812 -0.6875 44.21875 0.21875 C 41.300781 1.132812 38.03125 1.59375 34.40625 1.59375 C 32.8125 1.59375 31.410156 1.515625 30.203125 1.359375 C 28.992188 1.210938 27.859375 1.023438 26.796875 0.796875 C 25.734375 0.566406 24.707031 0.285156 23.71875 -0.046875 C 22.738281 -0.390625 21.644531 -0.753906 20.4375 -1.140625 C 18.695312 -1.742188 17.390625 -2.175781 16.515625 -2.4375 C 15.648438 -2.707031 14.835938 -2.84375 14.078125 -2.84375 C 13.546875 -2.84375 12.804688 -2.691406 11.859375 -2.390625 C 10.910156 -2.085938 10.0625 -1.289062 9.3125 0 L 5.21875 0 L 4.765625 -26.453125 L 7.5 -26.453125 C 7.71875 -25.617188 8.207031 -24.066406 8.96875 -21.796875 C 9.726562 -19.523438 10.863281 -17.140625 12.375 -14.640625 C 13.4375 -12.972656 14.609375 -11.421875 15.890625 -9.984375 C 17.179688 -8.546875 18.582031 -7.300781 20.09375 -6.25 C 21.457031 -5.257812 23.347656 -4.269531 25.765625 -3.28125 C 28.191406 -2.300781 31.03125 -1.8125 34.28125 -1.8125 C 37.46875 -1.8125 39.910156 -2.171875 41.609375 -2.890625 C 43.304688 -3.609375 44.421875 -4.160156 44.953125 -4.546875 C 46.472656 -5.597656 47.6875 -6.9375 48.59375 -8.5625 C 49.5 -10.195312 49.953125 -11.957031 49.953125 -13.84375 C 49.953125 -15.96875 49.535156 -17.785156 48.703125 -19.296875 C 47.867188 -20.816406 46.789062 -22.101562 45.46875 -23.15625 C 44.144531 -24.21875 42.664062 -25.125 41.03125 -25.875 C 39.40625 -26.632812 37.800781 -27.316406 36.21875 -27.921875 L 22.703125 -33.265625 C 20.503906 -34.097656 18.382812 -35.140625 16.34375 -36.390625 C 14.300781 -37.640625 12.445312 -39.359375 10.78125 -41.546875 C 9.269531 -43.515625 8.226562 -45.5 7.65625 -47.5 C 7.09375 -49.507812 6.8125 -51.5 6.8125 -53.46875 C 6.8125 -54.375 6.882812 -55.546875 7.03125 -56.984375 C 7.1875 -58.429688 7.53125 -59.96875 8.0625 -61.59375 C 8.59375 -63.21875 9.382812 -64.863281 10.4375 -66.53125 C 11.5 -68.195312 12.941406 -69.710938 14.765625 -71.078125 C 16.648438 -72.585938 18.878906 -73.773438 21.453125 -74.640625 C 24.023438 -75.515625 26.941406 -75.953125 30.203125 -75.953125 C 34.140625 -75.953125 37.582031 -75.304688 40.53125 -74.015625 C 41.59375 -73.566406 42.539062 -73.171875 43.375 -72.828125 C 44.207031 -72.484375 45.035156 -72.3125 45.859375 -72.3125 C 47.679688 -72.3125 49.273438 -72.992188 50.640625 -74.359375 L 54.71875 -74.359375 L 54.71875 -53.25 Z M 52 -53.25 "/></g></g></g><g fill="#c6605d" fill-opacity="0.4"><g transform="translate(76.491185, 191.995286)"><g><path d="M 7.03125 3.296875 C 6.6875 3.296875 6.359375 3.179688 6.046875 2.953125 C 5.742188 2.734375 5.59375 2.398438 5.59375 1.953125 C 5.59375 1.679688 5.664062 1.332031 5.8125 0.90625 C 6.28125 -0.46875 6.875 -1.851562 7.59375 -3.25 C 8.320312 -4.65625 9.078125 -5.972656 9.859375 -7.203125 C 10.640625 -8.441406 11.625 -9.9375 12.8125 -11.6875 C 14.144531 -13.644531 15.460938 -15.570312 16.765625 -17.46875 C 18.066406 -19.375 19.09375 -20.84375 19.84375 -21.875 C 18.863281 -21.832031 17.90625 -21.765625 16.96875 -21.671875 C 16.039062 -21.578125 15.273438 -21.484375 14.671875 -21.390625 C 13.285156 -19.828125 11.851562 -18.5 10.375 -17.40625 C 8.894531 -16.320312 7.46875 -15.503906 6.09375 -14.953125 C 4.71875 -14.410156 3.457031 -14.140625 2.3125 -14.140625 C 1.863281 -14.140625 1.441406 -14.210938 1.046875 -14.359375 C 0.648438 -14.515625 0.328125 -14.71875 0.078125 -14.96875 C -0.160156 -15.226562 -0.28125 -15.523438 -0.28125 -15.859375 C -0.28125 -17.273438 0.441406 -18.441406 1.890625 -19.359375 C 3.335938 -20.285156 4.988281 -20.984375 6.84375 -21.453125 C 8.695312 -21.921875 10.707031 -22.316406 12.875 -22.640625 L 14.875 -22.953125 C 14.988281 -23.097656 15.09375 -23.242188 15.1875 -23.390625 C 15.28125 -23.546875 15.375 -23.679688 15.46875 -23.796875 C 15.613281 -24.054688 15.753906 -24.269531 15.890625 -24.4375 C 16.078125 -24.6875 16.253906 -24.8125 16.421875 -24.8125 C 16.535156 -24.8125 16.59375 -24.742188 16.59375 -24.609375 C 16.59375 -24.347656 16.332031 -23.820312 15.8125 -23.03125 C 17.632812 -23.238281 19.421875 -23.34375 21.171875 -23.34375 C 23.203125 -23.34375 25.050781 -23.203125 26.71875 -22.921875 C 28.382812 -22.640625 29.707031 -22.238281 30.6875 -21.71875 C 31.675781 -21.195312 32.171875 -20.570312 32.171875 -19.84375 C 32.171875 -19.539062 32.125 -19.289062 32.03125 -19.09375 C 31.9375 -18.894531 31.84375 -18.796875 31.75 -18.796875 C 31.675781 -18.796875 31.640625 -18.851562 31.640625 -18.96875 C 31.640625 -19.457031 31.179688 -19.941406 30.265625 -20.421875 C 29.359375 -20.898438 28.226562 -21.285156 26.875 -21.578125 C 25.519531 -21.867188 24.238281 -22.015625 23.03125 -22.015625 C 22.726562 -21.847656 22.03125 -21.117188 20.9375 -19.828125 C 19.851562 -18.535156 18.671875 -17.015625 17.390625 -15.265625 C 16.109375 -13.515625 15.015625 -11.9375 14.109375 -10.53125 C 12.378906 -7.820312 10.945312 -5.363281 9.8125 -3.15625 C 8.6875 -0.957031 8.125 0.535156 8.125 1.328125 C 8.125 1.535156 8.179688 1.695312 8.296875 1.8125 C 8.410156 1.9375 8.5625 2 8.75 2 C 9.195312 2 9.78125 1.707031 10.5 1.125 C 10.632812 1 10.726562 0.9375 10.78125 0.9375 C 10.820312 0.9375 10.84375 0.984375 10.84375 1.078125 C 10.84375 1.203125 10.8125 1.332031 10.75 1.46875 C 10.601562 1.75 10.304688 2.03125 9.859375 2.3125 C 9.421875 2.59375 8.929688 2.828125 8.390625 3.015625 C 7.859375 3.203125 7.40625 3.296875 7.03125 3.296875 Z M 2.09375 -15.296875 C 3.445312 -15.296875 5.132812 -15.859375 7.15625 -16.984375 C 9.175781 -18.117188 11.164062 -19.523438 13.125 -21.203125 C 11.050781 -20.878906 9.109375 -20.441406 7.296875 -19.890625 C 5.484375 -19.347656 4.035156 -18.734375 2.953125 -18.046875 C 1.867188 -17.359375 1.328125 -16.675781 1.328125 -16 C 1.328125 -15.789062 1.394531 -15.617188 1.53125 -15.484375 C 1.675781 -15.359375 1.863281 -15.296875 2.09375 -15.296875 Z M 2.09375 -15.296875 "/></g></g></g><g fill="#c6605d" fill-opacity="0.4"><g transform="translate(95.386912, 191.995286)"><g><path d="M 8.640625 0.453125 C 8.222656 0.453125 7.882812 0.285156 7.625 -0.046875 C 7.375 -0.390625 7.25 -0.875 7.25 -1.5 C 7.25 -2.34375 7.414062 -3.253906 7.75 -4.234375 C 8.09375 -5.210938 8.484375 -6.125 8.921875 -6.96875 C 8.597656 -6.613281 8.050781 -5.890625 7.28125 -4.796875 C 6.226562 -3.253906 5.304688 -2.039062 4.515625 -1.15625 C 3.722656 -0.269531 2.988281 0.171875 2.3125 0.171875 C 1.800781 0.171875 1.332031 0 0.90625 -0.34375 C 0.488281 -0.695312 0.28125 -1.257812 0.28125 -2.03125 C 0.28125 -2.75 0.484375 -3.601562 0.890625 -4.59375 C 1.296875 -5.59375 1.894531 -6.695312 2.6875 -7.90625 C 3.25 -8.769531 3.941406 -9.554688 4.765625 -10.265625 C 5.597656 -10.984375 6.460938 -11.546875 7.359375 -11.953125 C 8.265625 -12.359375 9.113281 -12.5625 9.90625 -12.5625 C 10.1875 -12.5625 10.566406 -12.503906 11.046875 -12.390625 C 11.523438 -12.273438 11.941406 -12.109375 12.296875 -11.890625 C 12.660156 -11.679688 12.84375 -11.441406 12.84375 -11.171875 C 12.84375 -11.078125 12.816406 -11 12.765625 -10.9375 C 12.722656 -10.875 12.664062 -10.84375 12.59375 -10.84375 C 12.53125 -10.84375 12.414062 -10.890625 12.25 -10.984375 C 11.6875 -11.316406 11.160156 -11.484375 10.671875 -11.484375 C 9.835938 -11.484375 8.914062 -11.164062 7.90625 -10.53125 C 6.90625 -9.90625 5.859375 -8.84375 4.765625 -7.34375 C 3.617188 -5.78125 2.835938 -4.5625 2.421875 -3.6875 C 2.015625 -2.8125 1.8125 -2.144531 1.8125 -1.6875 C 1.8125 -1.332031 1.941406 -1.15625 2.203125 -1.15625 C 2.484375 -1.15625 2.859375 -1.34375 3.328125 -1.71875 C 4.328125 -2.53125 5.269531 -3.46875 6.15625 -4.53125 C 7.039062 -5.59375 7.785156 -6.59375 8.390625 -7.53125 C 9.003906 -8.476562 9.4375 -9.242188 9.6875 -9.828125 C 9.71875 -9.921875 9.800781 -9.96875 9.9375 -9.96875 C 10.125 -9.96875 10.332031 -9.882812 10.5625 -9.71875 C 10.800781 -9.5625 11.003906 -9.359375 11.171875 -9.109375 C 11.347656 -8.867188 11.4375 -8.609375 11.4375 -8.328125 C 11.4375 -8.117188 11.394531 -7.929688 11.3125 -7.765625 C 10.75 -6.785156 10.285156 -5.847656 9.921875 -4.953125 C 9.554688 -4.054688 9.375 -3.234375 9.375 -2.484375 C 9.375 -1.804688 9.585938 -1.46875 10.015625 -1.46875 C 10.359375 -1.46875 10.78125 -1.707031 11.28125 -2.1875 C 11.789062 -2.664062 12.488281 -3.476562 13.375 -4.625 C 14.019531 -5.4375 14.4375 -5.945312 14.625 -6.15625 C 14.8125 -6.363281 14.960938 -6.46875 15.078125 -6.46875 C 15.171875 -6.46875 15.25 -6.441406 15.3125 -6.390625 C 15.375 -6.347656 15.40625 -6.296875 15.40625 -6.234375 C 15.40625 -6.140625 15.25 -5.859375 14.9375 -5.390625 C 14.40625 -4.523438 13.769531 -3.648438 13.03125 -2.765625 C 12.300781 -1.878906 11.546875 -1.117188 10.765625 -0.484375 C 9.984375 0.140625 9.273438 0.453125 8.640625 0.453125 Z M 8.640625 0.453125 "/></g></g></g><g fill="#c6605d" fill-opacity="0.4"><g transform="translate(108.298994, 191.995286)"><g><path d="M 3.671875 0.28125 C 3.347656 0.28125 3.046875 0.226562 2.765625 0.125 C 2.484375 0.0195312 2.34375 -0.101562 2.34375 -0.25 C 2.34375 -0.289062 2.351562 -0.320312 2.375 -0.34375 L 3.046875 -1.5 C 4.117188 -3.300781 5 -4.878906 5.6875 -6.234375 C 6.375 -7.585938 6.925781 -8.972656 7.34375 -10.390625 C 7.394531 -10.535156 7.421875 -10.703125 7.421875 -10.890625 C 7.421875 -11.023438 7.382812 -11.117188 7.3125 -11.171875 C 7.238281 -11.234375 7.125 -11.265625 6.96875 -11.265625 C 6.664062 -11.265625 6.28125 -11 5.8125 -10.46875 C 5.34375 -9.945312 4.6875 -9.070312 3.84375 -7.84375 C 3.125 -6.789062 2.296875 -5.625 1.359375 -4.34375 C 1.171875 -4.082031 1.046875 -3.953125 0.984375 -3.953125 C 0.910156 -3.953125 0.851562 -4.007812 0.8125 -4.125 C 0.78125 -4.25 0.765625 -4.378906 0.765625 -4.515625 C 0.765625 -4.722656 0.789062 -4.863281 0.84375 -4.9375 C 2.03125 -6.632812 2.765625 -7.71875 3.046875 -8.1875 L 5.671875 -12.421875 C 5.742188 -12.535156 5.910156 -12.628906 6.171875 -12.703125 C 6.441406 -12.773438 6.695312 -12.8125 6.9375 -12.8125 C 7.300781 -12.8125 7.691406 -12.722656 8.109375 -12.546875 C 8.535156 -12.367188 8.890625 -12.128906 9.171875 -11.828125 C 9.453125 -11.523438 9.59375 -11.195312 9.59375 -10.84375 C 9.59375 -10.445312 9.492188 -10.015625 9.296875 -9.546875 C 9.097656 -9.085938 8.8125 -8.507812 8.4375 -7.8125 C 8.101562 -7.195312 7.878906 -6.765625 7.765625 -6.515625 C 8.816406 -7.867188 9.890625 -9.035156 10.984375 -10.015625 C 12.085938 -10.992188 13.101562 -11.484375 14.03125 -11.484375 C 14.632812 -11.484375 15.066406 -11.265625 15.328125 -10.828125 C 15.585938 -10.398438 15.71875 -9.847656 15.71875 -9.171875 C 15.71875 -8.703125 15.671875 -8.226562 15.578125 -7.75 C 15.484375 -7.269531 15.363281 -6.867188 15.21875 -6.546875 L 14.875 -5.703125 C 15.8125 -6.753906 16.503906 -7.519531 16.953125 -8 C 17.410156 -8.476562 17.753906 -8.820312 17.984375 -9.03125 C 18.359375 -9.382812 18.804688 -9.722656 19.328125 -10.046875 C 19.859375 -10.367188 20.359375 -10.53125 20.828125 -10.53125 C 21.265625 -10.53125 21.613281 -10.382812 21.875 -10.09375 C 22.132812 -9.800781 22.265625 -9.363281 22.265625 -8.78125 C 22.265625 -8.5 22.203125 -7.972656 22.078125 -7.203125 C 22.054688 -7.046875 21.992188 -6.535156 21.890625 -5.671875 C 21.785156 -4.804688 21.734375 -4.046875 21.734375 -3.390625 C 21.734375 -2.804688 21.785156 -2.351562 21.890625 -2.03125 C 21.992188 -1.707031 22.148438 -1.546875 22.359375 -1.546875 C 22.660156 -1.546875 23.125 -1.875 23.75 -2.53125 C 24.382812 -3.195312 25.179688 -4.125 26.140625 -5.3125 C 26.753906 -6.082031 27.128906 -6.46875 27.265625 -6.46875 C 27.335938 -6.46875 27.40625 -6.441406 27.46875 -6.390625 C 27.539062 -6.347656 27.578125 -6.28125 27.578125 -6.1875 C 27.578125 -6.03125 27.25 -5.5 26.59375 -4.59375 C 25.945312 -3.695312 25.390625 -2.984375 24.921875 -2.453125 C 24.265625 -1.703125 23.640625 -1.085938 23.046875 -0.609375 C 22.453125 -0.128906 21.898438 0.109375 21.390625 0.109375 C 20.753906 0.109375 20.3125 -0.195312 20.0625 -0.8125 C 19.820312 -1.4375 19.703125 -2.273438 19.703125 -3.328125 C 19.703125 -4.046875 19.738281 -4.753906 19.8125 -5.453125 C 19.851562 -6.347656 19.875 -6.96875 19.875 -7.3125 C 19.875 -7.851562 19.832031 -8.234375 19.75 -8.453125 C 19.675781 -8.671875 19.546875 -8.78125 19.359375 -8.78125 C 18.984375 -8.78125 18.523438 -8.546875 17.984375 -8.078125 C 17.453125 -7.617188 16.765625 -6.863281 15.921875 -5.8125 C 15.578125 -5.363281 15.226562 -4.875 14.875 -4.34375 C 14.519531 -3.820312 14.191406 -3.316406 13.890625 -2.828125 C 13.472656 -2.128906 13.21875 -1.710938 13.125 -1.578125 C 12.84375 -1.242188 12.554688 -0.992188 12.265625 -0.828125 C 11.972656 -0.671875 11.722656 -0.59375 11.515625 -0.59375 C 11.304688 -0.59375 11.132812 -0.660156 11 -0.796875 C 10.875 -0.941406 10.8125 -1.144531 10.8125 -1.40625 C 10.8125 -1.59375 10.867188 -1.859375 10.984375 -2.203125 C 11.128906 -2.554688 11.285156 -2.925781 11.453125 -3.3125 C 11.628906 -3.695312 11.789062 -4.0625 11.9375 -4.40625 C 12.519531 -5.664062 12.984375 -6.722656 13.328125 -7.578125 C 13.679688 -8.429688 13.859375 -9.066406 13.859375 -9.484375 C 13.859375 -9.765625 13.800781 -10.003906 13.6875 -10.203125 C 13.570312 -10.398438 13.394531 -10.5 13.15625 -10.5 C 12.90625 -10.5 12.507812 -10.316406 11.96875 -9.953125 C 11.4375 -9.597656 10.957031 -9.1875 10.53125 -8.71875 C 9.925781 -8.082031 9.203125 -7.21875 8.359375 -6.125 C 7.585938 -5.09375 6.851562 -4.015625 6.15625 -2.890625 C 5.457031 -1.773438 4.898438 -0.8125 4.484375 0 C 4.390625 0.1875 4.117188 0.28125 3.671875 0.28125 Z M 3.671875 0.28125 "/></g></g></g><g fill="#c6605d" fill-opacity="0.4"><g transform="translate(133.353336, 191.995286)"><g><path d="M 4.4375 0.53125 C 3.4375 0.53125 2.601562 0.285156 1.9375 -0.203125 C 1.269531 -0.691406 0.9375 -1.546875 0.9375 -2.765625 C 0.9375 -3.910156 1.367188 -5.269531 2.234375 -6.84375 C 3.097656 -8.414062 4.179688 -9.765625 5.484375 -10.890625 C 6.796875 -12.023438 8.09375 -12.59375 9.375 -12.59375 C 10.03125 -12.59375 10.515625 -12.421875 10.828125 -12.078125 C 11.148438 -11.742188 11.3125 -11.3125 11.3125 -10.78125 C 11.3125 -9.84375 10.859375 -8.894531 9.953125 -7.9375 C 9.054688 -6.988281 7.976562 -6.203125 6.71875 -5.578125 C 5.457031 -4.960938 4.375 -4.65625 3.46875 -4.65625 C 3.207031 -4.070312 3.078125 -3.523438 3.078125 -3.015625 C 3.078125 -2.304688 3.191406 -1.742188 3.421875 -1.328125 C 3.660156 -0.910156 4.128906 -0.703125 4.828125 -0.703125 C 5.828125 -0.703125 6.769531 -0.96875 7.65625 -1.5 C 8.550781 -2.039062 9.359375 -2.707031 10.078125 -3.5 C 10.804688 -4.289062 11.585938 -5.28125 12.421875 -6.46875 C 12.515625 -6.59375 12.609375 -6.65625 12.703125 -6.65625 C 12.773438 -6.65625 12.832031 -6.609375 12.875 -6.515625 C 12.925781 -6.421875 12.953125 -6.3125 12.953125 -6.1875 C 12.953125 -6.03125 12.890625 -5.835938 12.765625 -5.609375 C 12.648438 -5.390625 12.441406 -5.082031 12.140625 -4.6875 C 11.273438 -3.5 10.453125 -2.53125 9.671875 -1.78125 C 8.890625 -1.039062 8.070312 -0.46875 7.21875 -0.0625 C 6.375 0.332031 5.445312 0.53125 4.4375 0.53125 Z M 3.78125 -5.359375 C 4.550781 -5.398438 5.4375 -5.75 6.4375 -6.40625 C 7.4375 -7.0625 8.304688 -7.796875 9.046875 -8.609375 C 9.785156 -9.421875 10.15625 -10.070312 10.15625 -10.5625 C 10.15625 -10.894531 10.015625 -11.0625 9.734375 -11.0625 C 9.242188 -11.0625 8.613281 -10.78125 7.84375 -10.21875 C 7.070312 -9.65625 6.3125 -8.929688 5.5625 -8.046875 C 4.8125 -7.160156 4.21875 -6.265625 3.78125 -5.359375 Z M 3.78125 -5.359375 "/></g></g></g><g fill="#c6605d" fill-opacity="0.4"><g transform="translate(143.815971, 191.995286)"><g><path d="M 6.125 0.53125 C 4.957031 0.53125 4.375 -0.160156 4.375 -1.546875 C 4.375 -2.097656 4.46875 -2.707031 4.65625 -3.375 C 4.84375 -4.039062 5.039062 -4.617188 5.25 -5.109375 C 5.832031 -6.460938 6.6875 -8.050781 7.8125 -9.875 C 7.53125 -9.820312 7.257812 -9.796875 7 -9.796875 C 6.675781 -9.796875 6.359375 -9.820312 6.046875 -9.875 C 5.742188 -9.9375 5.523438 -10.03125 5.390625 -10.15625 C 5.128906 -9.84375 4.601562 -9.070312 3.8125 -7.84375 C 2.90625 -6.4375 2.253906 -5.472656 1.859375 -4.953125 C 1.460938 -4.429688 1.191406 -4.171875 1.046875 -4.171875 C 0.972656 -4.171875 0.90625 -4.222656 0.84375 -4.328125 C 0.789062 -4.429688 0.765625 -4.539062 0.765625 -4.65625 C 0.765625 -4.769531 0.8125 -4.882812 0.90625 -5 C 2.125 -6.78125 3.289062 -8.679688 4.40625 -10.703125 C 4.101562 -11.015625 3.953125 -11.351562 3.953125 -11.71875 C 3.953125 -12.113281 4.0625 -12.539062 4.28125 -13 C 4.507812 -13.457031 4.832031 -13.847656 5.25 -14.171875 C 5.664062 -14.503906 6.179688 -14.671875 6.796875 -14.671875 C 7.066406 -14.671875 7.265625 -14.628906 7.390625 -14.546875 C 7.523438 -14.460938 7.59375 -14.328125 7.59375 -14.140625 C 7.59375 -13.742188 7.21875 -13.046875 6.46875 -12.046875 C 6.332031 -11.828125 6.207031 -11.628906 6.09375 -11.453125 C 5.976562 -11.285156 5.921875 -11.164062 5.921875 -11.09375 C 5.941406 -10.976562 6.144531 -10.875 6.53125 -10.78125 C 6.914062 -10.6875 7.296875 -10.640625 7.671875 -10.640625 C 7.878906 -10.640625 8.113281 -10.679688 8.375 -10.765625 C 8.644531 -10.847656 8.957031 -10.890625 9.3125 -10.890625 C 9.707031 -10.890625 10.007812 -10.8125 10.21875 -10.65625 C 10.425781 -10.507812 10.53125 -10.34375 10.53125 -10.15625 C 10.53125 -9.84375 10.332031 -9.46875 9.9375 -9.03125 C 9.40625 -8.445312 8.867188 -7.738281 8.328125 -6.90625 C 7.796875 -6.082031 7.347656 -5.226562 6.984375 -4.34375 C 6.617188 -3.457031 6.4375 -2.660156 6.4375 -1.953125 C 6.4375 -1.441406 6.644531 -1.1875 7.0625 -1.1875 C 7.394531 -1.1875 7.757812 -1.289062 8.15625 -1.5 C 8.550781 -1.707031 9.09375 -2.1875 9.78125 -2.9375 C 10.46875 -3.6875 11.3125 -4.816406 12.3125 -6.328125 C 12.40625 -6.472656 12.484375 -6.578125 12.546875 -6.640625 C 12.609375 -6.710938 12.660156 -6.75 12.703125 -6.75 C 12.796875 -6.75 12.878906 -6.691406 12.953125 -6.578125 C 13.023438 -6.460938 13.0625 -6.347656 13.0625 -6.234375 C 13.0625 -6.140625 13.015625 -6.019531 12.921875 -5.875 C 11.703125 -4.0625 10.519531 -2.539062 9.375 -1.3125 C 8.238281 -0.0820312 7.15625 0.53125 6.125 0.53125 Z M 6.125 0.53125 "/></g></g></g><g fill="#c6605d" fill-opacity="0.4"><g transform="translate(154.278605, 191.995286)"><g/></g></g><g fill="#c6605d" fill-opacity="0.4"><g transform="translate(161.277022, 191.995286)"><g><path d="M 8.71875 8.125 C 8.601562 8.125 8.503906 8.09375 8.421875 8.03125 C 8.335938 7.96875 8.296875 7.894531 8.296875 7.8125 C 8.296875 7.71875 8.390625 7.484375 8.578125 7.109375 C 9.484375 5.242188 10.234375 3.765625 10.828125 2.671875 C 11.421875 1.585938 12.09375 0.488281 12.84375 -0.625 C 13.59375 -1.75 14.65625 -3.269531 16.03125 -5.1875 C 17.101562 -6.65625 18.410156 -8.335938 19.953125 -10.234375 C 21.492188 -12.140625 22.53125 -13.328125 23.0625 -13.796875 C 23.71875 -16.285156 24.046875 -18.394531 24.046875 -20.125 C 24.046875 -21.914062 23.726562 -23.191406 23.09375 -23.953125 C 22.46875 -24.710938 21.582031 -25.09375 20.4375 -25.09375 C 19.4375 -25.09375 18.351562 -24.863281 17.1875 -24.40625 C 16.019531 -23.957031 14.828125 -23.40625 13.609375 -22.75 C 11.554688 -21.625 9.523438 -20.273438 7.515625 -18.703125 C 5.515625 -17.128906 3.921875 -15.65625 2.734375 -14.28125 C 2.492188 -14.019531 2.375 -13.859375 2.375 -13.796875 C 2.375 -13.742188 2.4375 -13.71875 2.5625 -13.71875 C 2.675781 -13.71875 2.863281 -13.734375 3.125 -13.765625 C 3.394531 -13.804688 3.613281 -13.828125 3.78125 -13.828125 C 3.894531 -13.828125 3.972656 -13.820312 4.015625 -13.8125 C 4.066406 -13.800781 4.09375 -13.769531 4.09375 -13.71875 L 3.78125 -13.578125 C 3.101562 -13.203125 2.53125 -13.015625 2.0625 -13.015625 C 1.8125 -13.015625 1.566406 -13.128906 1.328125 -13.359375 C 1.097656 -13.597656 0.910156 -13.859375 0.765625 -14.140625 C 0.628906 -14.421875 0.5625 -14.609375 0.5625 -14.703125 C 0.5625 -15.304688 1.15625 -16.144531 2.34375 -17.21875 C 3.53125 -18.289062 5.070312 -19.414062 6.96875 -20.59375 C 8.875 -21.769531 10.820312 -22.789062 12.8125 -23.65625 C 16.195312 -25.15625 18.9375 -25.90625 21.03125 -25.90625 C 22.625 -25.90625 23.894531 -25.441406 24.84375 -24.515625 C 25.800781 -23.597656 26.28125 -22.085938 26.28125 -19.984375 C 26.28125 -19.097656 26.1875 -18.070312 26 -16.90625 C 28.144531 -19.050781 30.25 -20.847656 32.3125 -22.296875 C 34.382812 -23.742188 36.097656 -24.46875 37.453125 -24.46875 C 38.222656 -24.46875 38.851562 -24.175781 39.34375 -23.59375 C 39.832031 -23.007812 40.078125 -22.097656 40.078125 -20.859375 C 40.078125 -19.972656 39.910156 -18.921875 39.578125 -17.703125 C 39.253906 -16.492188 38.859375 -15.289062 38.390625 -14.09375 C 37.921875 -12.90625 37.335938 -11.472656 36.640625 -9.796875 C 36.148438 -8.648438 35.753906 -7.679688 35.453125 -6.890625 C 35.316406 -6.546875 35.25 -6.3125 35.25 -6.1875 C 35.25 -6.101562 35.28125 -6.0625 35.34375 -6.0625 C 35.4375 -6.0625 35.625 -6.222656 35.90625 -6.546875 C 39.550781 -11.046875 42.972656 -13.972656 46.171875 -15.328125 C 46.753906 -15.566406 47.265625 -15.6875 47.703125 -15.6875 C 48.378906 -15.6875 48.71875 -15.414062 48.71875 -14.875 C 48.71875 -14.6875 48.660156 -14.414062 48.546875 -14.0625 C 47.753906 -11.875 46.957031 -9.351562 46.15625 -6.5 C 45.363281 -3.65625 44.96875 -1.082031 44.96875 1.21875 C 44.96875 2.8125 45.226562 4.066406 45.75 4.984375 C 46.28125 5.910156 47.128906 6.375 48.296875 6.375 C 49.234375 6.375 50.28125 6.019531 51.4375 5.3125 C 52.59375 4.613281 53.691406 3.671875 54.734375 2.484375 C 54.921875 2.273438 55.0625 2.128906 55.15625 2.046875 C 55.25 1.960938 55.320312 1.921875 55.375 1.921875 C 55.414062 1.921875 55.453125 1.941406 55.484375 1.984375 C 55.523438 2.035156 55.546875 2.097656 55.546875 2.171875 C 55.546875 2.285156 55.503906 2.429688 55.421875 2.609375 C 55.335938 2.785156 55.21875 2.96875 55.0625 3.15625 C 53.820312 4.570312 52.535156 5.65625 51.203125 6.40625 C 49.867188 7.15625 48.617188 7.53125 47.453125 7.53125 C 45.828125 7.53125 44.648438 6.863281 43.921875 5.53125 C 43.203125 4.195312 42.84375 2.4375 42.84375 0.25 C 42.84375 -1.40625 43.007812 -3.179688 43.34375 -5.078125 C 43.6875 -6.984375 44.097656 -8.734375 44.578125 -10.328125 C 45.054688 -11.929688 45.46875 -13.117188 45.8125 -13.890625 C 44.90625 -13.492188 43.796875 -12.722656 42.484375 -11.578125 C 41.179688 -10.441406 39.914062 -9.195312 38.6875 -7.84375 C 37.46875 -6.488281 36.519531 -5.332031 35.84375 -4.375 C 35.46875 -3.832031 35.144531 -3.398438 34.875 -3.078125 C 34.601562 -2.753906 34.398438 -2.550781 34.265625 -2.46875 C 34.128906 -2.382812 33.941406 -2.34375 33.703125 -2.34375 C 33.472656 -2.34375 33.265625 -2.390625 33.078125 -2.484375 C 32.890625 -2.578125 32.796875 -2.691406 32.796875 -2.828125 C 32.796875 -2.972656 32.851562 -3.210938 32.96875 -3.546875 C 33.082031 -3.890625 33.210938 -4.257812 33.359375 -4.65625 C 33.867188 -6.050781 34.414062 -7.820312 35 -9.96875 C 35.582031 -12.113281 36.070312 -14.175781 36.46875 -16.15625 C 36.863281 -18.144531 37.0625 -19.628906 37.0625 -20.609375 C 37.0625 -21.378906 36.960938 -21.953125 36.765625 -22.328125 C 36.566406 -22.703125 36.269531 -22.890625 35.875 -22.890625 C 34.9375 -22.890625 33.5 -22.070312 31.5625 -20.4375 C 29.632812 -18.800781 27.609375 -16.851562 25.484375 -14.59375 C 24.710938 -11.539062 23.59375 -8.585938 22.125 -5.734375 C 20.65625 -2.890625 19.0625 -0.585938 17.34375 1.171875 C 15.625 2.929688 14.03125 3.8125 12.5625 3.8125 C 12.375 3.8125 12.179688 3.785156 11.984375 3.734375 C 11.785156 3.691406 11.617188 3.632812 11.484375 3.5625 C 10.429688 5.457031 9.695312 6.753906 9.28125 7.453125 C 9.019531 7.898438 8.832031 8.125 8.71875 8.125 Z M 11.96875 2.875 C 13.019531 2.820312 14.1875 2.132812 15.46875 0.8125 C 16.75 -0.5 17.984375 -2.195312 19.171875 -4.28125 C 20.367188 -6.375 21.363281 -8.5625 22.15625 -10.84375 C 20.726562 -9.28125 19.078125 -7.226562 17.203125 -4.6875 C 15.328125 -2.144531 13.582031 0.375 11.96875 2.875 Z M 11.96875 2.875 "/></g></g></g><g fill="#c6605d" fill-opacity="0.4"><g transform="translate(210.475913, 191.995286)"><g><path d="M 2.828125 0.109375 C 2.554688 0.109375 2.328125 0.015625 2.140625 -0.171875 C 1.953125 -0.359375 1.859375 -0.613281 1.859375 -0.9375 C 1.859375 -1.34375 2.0625 -1.617188 2.46875 -1.765625 C 2.875 -1.921875 3.3125 -2 3.78125 -2 C 3.96875 -2 4.097656 -1.925781 4.171875 -1.78125 C 4.191406 -1.738281 4.203125 -1.644531 4.203125 -1.5 C 4.203125 -1.25 4.125 -0.992188 3.96875 -0.734375 C 3.820312 -0.472656 3.632812 -0.265625 3.40625 -0.109375 C 3.1875 0.0351562 2.992188 0.109375 2.828125 0.109375 Z M 2.828125 0.109375 "/></g></g></g><g fill="#c6605d" fill-opacity="0.4"><g transform="translate(216.774489, 191.995286)"><g/></g></g><g fill="#c6605d" fill-opacity="0.4"><g transform="translate(223.772905, 191.995286)"><g><path d="M 5.1875 3.78125 C 3.6875 3.78125 2.488281 3.582031 1.59375 3.1875 C 0.695312 2.789062 0.25 2.207031 0.25 1.4375 C 0.25 0.363281 0.914062 -0.5625 2.25 -1.34375 C 3.59375 -2.125 5.550781 -2.796875 8.125 -3.359375 C 8.820312 -3.523438 9.265625 -3.609375 9.453125 -3.609375 C 9.609375 -3.609375 9.734375 -3.570312 9.828125 -3.5 C 9.921875 -3.425781 9.96875 -3.359375 9.96875 -3.296875 C 9.96875 -3.148438 9.84375 -3.039062 9.59375 -2.96875 C 8 -2.476562 6.617188 -1.988281 5.453125 -1.5 C 4.285156 -1.007812 3.398438 -0.539062 2.796875 -0.09375 C 2.191406 0.34375 1.890625 0.734375 1.890625 1.078125 C 1.890625 1.566406 2.269531 1.953125 3.03125 2.234375 C 3.789062 2.515625 4.765625 2.65625 5.953125 2.65625 C 7.191406 2.65625 8.484375 2.503906 9.828125 2.203125 C 11.179688 1.898438 12.441406 1.425781 13.609375 0.78125 C 14.773438 0.144531 15.6875 -0.628906 16.34375 -1.546875 C 16.71875 -2.054688 16.90625 -2.53125 16.90625 -2.96875 C 16.90625 -3.394531 16.753906 -3.78125 16.453125 -4.125 C 16.148438 -4.476562 15.628906 -4.84375 14.890625 -5.21875 C 14.160156 -5.59375 13.128906 -6.035156 11.796875 -6.546875 C 10.328125 -7.109375 9.148438 -7.601562 8.265625 -8.03125 C 7.378906 -8.46875 6.617188 -9.007812 5.984375 -9.65625 C 5.359375 -10.3125 5.046875 -11.082031 5.046875 -11.96875 C 5.046875 -14.039062 6.144531 -16.003906 8.34375 -17.859375 C 10.550781 -19.722656 13.21875 -21.21875 16.34375 -22.34375 C 19.46875 -23.476562 22.234375 -24.046875 24.640625 -24.046875 C 26.085938 -24.046875 27.171875 -23.8125 27.890625 -23.34375 C 28.617188 -22.875 28.984375 -22.253906 28.984375 -21.484375 C 28.984375 -20.347656 28.519531 -19.179688 27.59375 -17.984375 C 26.675781 -16.796875 25.445312 -15.738281 23.90625 -14.8125 C 22.363281 -13.894531 20.726562 -13.25 19 -12.875 C 18.445312 -12.738281 18.039062 -12.671875 17.78125 -12.671875 C 17.632812 -12.671875 17.5625 -12.707031 17.5625 -12.78125 C 17.5625 -12.894531 17.65625 -13.023438 17.84375 -13.171875 C 18.03125 -13.328125 18.226562 -13.441406 18.4375 -13.515625 C 19.1875 -13.796875 20.3125 -14.394531 21.8125 -15.3125 C 23.320312 -16.226562 24.664062 -17.207031 25.84375 -18.25 C 27.019531 -19.289062 27.609375 -20.171875 27.609375 -20.890625 C 27.609375 -21.335938 27.320312 -21.703125 26.75 -21.984375 C 26.1875 -22.265625 25.296875 -22.40625 24.078125 -22.40625 C 22.003906 -22.40625 19.691406 -21.925781 17.140625 -20.96875 C 14.597656 -20.007812 12.445312 -18.742188 10.6875 -17.171875 C 8.925781 -15.597656 8.046875 -13.9375 8.046875 -12.1875 C 8.046875 -11.476562 8.265625 -10.835938 8.703125 -10.265625 C 9.148438 -9.703125 9.867188 -9.15625 10.859375 -8.625 C 11.859375 -8.101562 13.207031 -7.570312 14.90625 -7.03125 C 16.257812 -6.59375 17.316406 -6.195312 18.078125 -5.84375 C 18.835938 -5.488281 19.382812 -5.128906 19.71875 -4.765625 C 20.0625 -4.410156 20.234375 -4.007812 20.234375 -3.5625 C 20.234375 -2.894531 19.8125 -2.101562 18.96875 -1.1875 C 18.03125 -0.1875 16.769531 0.691406 15.1875 1.453125 C 13.601562 2.210938 11.921875 2.789062 10.140625 3.1875 C 8.367188 3.582031 6.71875 3.78125 5.1875 3.78125 Z M 5.1875 3.78125 "/></g></g></g><g fill="#c6605d" fill-opacity="0.4"><g transform="translate(244.138306, 191.995286)"><g><path d="M 8.640625 0.453125 C 8.222656 0.453125 7.882812 0.285156 7.625 -0.046875 C 7.375 -0.390625 7.25 -0.875 7.25 -1.5 C 7.25 -2.34375 7.414062 -3.253906 7.75 -4.234375 C 8.09375 -5.210938 8.484375 -6.125 8.921875 -6.96875 C 8.597656 -6.613281 8.050781 -5.890625 7.28125 -4.796875 C 6.226562 -3.253906 5.304688 -2.039062 4.515625 -1.15625 C 3.722656 -0.269531 2.988281 0.171875 2.3125 0.171875 C 1.800781 0.171875 1.332031 0 0.90625 -0.34375 C 0.488281 -0.695312 0.28125 -1.257812 0.28125 -2.03125 C 0.28125 -2.75 0.484375 -3.601562 0.890625 -4.59375 C 1.296875 -5.59375 1.894531 -6.695312 2.6875 -7.90625 C 3.25 -8.769531 3.941406 -9.554688 4.765625 -10.265625 C 5.597656 -10.984375 6.460938 -11.546875 7.359375 -11.953125 C 8.265625 -12.359375 9.113281 -12.5625 9.90625 -12.5625 C 10.1875 -12.5625 10.566406 -12.503906 11.046875 -12.390625 C 11.523438 -12.273438 11.941406 -12.109375 12.296875 -11.890625 C 12.660156 -11.679688 12.84375 -11.441406 12.84375 -11.171875 C 12.84375 -11.078125 12.816406 -11 12.765625 -10.9375 C 12.722656 -10.875 12.664062 -10.84375 12.59375 -10.84375 C 12.53125 -10.84375 12.414062 -10.890625 12.25 -10.984375 C 11.6875 -11.316406 11.160156 -11.484375 10.671875 -11.484375 C 9.835938 -11.484375 8.914062 -11.164062 7.90625 -10.53125 C 6.90625 -9.90625 5.859375 -8.84375 4.765625 -7.34375 C 3.617188 -5.78125 2.835938 -4.5625 2.421875 -3.6875 C 2.015625 -2.8125 1.8125 -2.144531 1.8125 -1.6875 C 1.8125 -1.332031 1.941406 -1.15625 2.203125 -1.15625 C 2.484375 -1.15625 2.859375 -1.34375 3.328125 -1.71875 C 4.328125 -2.53125 5.269531 -3.46875 6.15625 -4.53125 C 7.039062 -5.59375 7.785156 -6.59375 8.390625 -7.53125 C 9.003906 -8.476562 9.4375 -9.242188 9.6875 -9.828125 C 9.71875 -9.921875 9.800781 -9.96875 9.9375 -9.96875 C 10.125 -9.96875 10.332031 -9.882812 10.5625 -9.71875 C 10.800781 -9.5625 11.003906 -9.359375 11.171875 -9.109375 C 11.347656 -8.867188 11.4375 -8.609375 11.4375 -8.328125 C 11.4375 -8.117188 11.394531 -7.929688 11.3125 -7.765625 C 10.75 -6.785156 10.285156 -5.847656 9.921875 -4.953125 C 9.554688 -4.054688 9.375 -3.234375 9.375 -2.484375 C 9.375 -1.804688 9.585938 -1.46875 10.015625 -1.46875 C 10.359375 -1.46875 10.78125 -1.707031 11.28125 -2.1875 C 11.789062 -2.664062 12.488281 -3.476562 13.375 -4.625 C 14.019531 -5.4375 14.4375 -5.945312 14.625 -6.15625 C 14.8125 -6.363281 14.960938 -6.46875 15.078125 -6.46875 C 15.171875 -6.46875 15.25 -6.441406 15.3125 -6.390625 C 15.375 -6.347656 15.40625 -6.296875 15.40625 -6.234375 C 15.40625 -6.140625 15.25 -5.859375 14.9375 -5.390625 C 14.40625 -4.523438 13.769531 -3.648438 13.03125 -2.765625 C 12.300781 -1.878906 11.546875 -1.117188 10.765625 -0.484375 C 9.984375 0.140625 9.273438 0.453125 8.640625 0.453125 Z M 8.640625 0.453125 "/></g></g></g><g fill="#c6605d" fill-opacity="0.4"><g transform="translate(257.050388, 191.995286)"><g><path d="M 3.390625 0.53125 C 2.460938 0.53125 1.785156 0.269531 1.359375 -0.25 C 0.941406 -0.78125 0.734375 -1.476562 0.734375 -2.34375 C 0.734375 -3.300781 0.9375 -4.367188 1.34375 -5.546875 C 1.75 -6.722656 2.476562 -8.222656 3.53125 -10.046875 C 5.03125 -12.660156 6.566406 -15.070312 8.140625 -17.28125 C 9.710938 -19.5 11.15625 -21.273438 12.46875 -22.609375 C 13.789062 -23.941406 14.828125 -24.609375 15.578125 -24.609375 C 15.828125 -24.609375 16.238281 -24.476562 16.8125 -24.21875 C 17.382812 -23.957031 17.890625 -23.640625 18.328125 -23.265625 C 18.773438 -22.898438 19 -22.566406 19 -22.265625 C 19 -22.023438 18.816406 -21.640625 18.453125 -21.109375 C 18.097656 -20.585938 17.601562 -19.976562 16.96875 -19.28125 C 15.757812 -17.90625 13.957031 -16.148438 11.5625 -14.015625 C 9.175781 -11.878906 6.941406 -10.054688 4.859375 -8.546875 C 3.460938 -5.972656 2.765625 -3.894531 2.765625 -2.3125 C 2.765625 -1.28125 3.113281 -0.765625 3.8125 -0.765625 C 4.8125 -0.765625 5.875 -1.195312 7 -2.0625 C 8.125 -2.925781 9.453125 -4.394531 10.984375 -6.46875 C 11.078125 -6.59375 11.160156 -6.65625 11.234375 -6.65625 C 11.328125 -6.65625 11.394531 -6.609375 11.4375 -6.515625 C 11.488281 -6.421875 11.515625 -6.300781 11.515625 -6.15625 C 11.515625 -6.09375 11.457031 -5.953125 11.34375 -5.734375 C 10.707031 -4.617188 9.953125 -3.582031 9.078125 -2.625 C 8.203125 -1.664062 7.269531 -0.898438 6.28125 -0.328125 C 5.289062 0.242188 4.328125 0.53125 3.390625 0.53125 Z M 5.984375 -10.4375 C 8.765625 -12.882812 11.332031 -15.273438 13.6875 -17.609375 C 16.039062 -19.941406 17.21875 -21.429688 17.21875 -22.078125 C 17.21875 -22.316406 17.132812 -22.492188 16.96875 -22.609375 C 16.8125 -22.722656 16.613281 -22.78125 16.375 -22.78125 C 15.488281 -22.78125 14.234375 -21.816406 12.609375 -19.890625 C 10.992188 -17.972656 9.226562 -15.539062 7.3125 -12.59375 Z M 5.984375 -10.4375 "/></g></g></g><g fill="#c6605d" fill-opacity="0.4"><g transform="translate(266.078345, 191.995286)"><g><path d="M 4.4375 0.53125 C 3.4375 0.53125 2.601562 0.285156 1.9375 -0.203125 C 1.269531 -0.691406 0.9375 -1.546875 0.9375 -2.765625 C 0.9375 -3.910156 1.367188 -5.269531 2.234375 -6.84375 C 3.097656 -8.414062 4.179688 -9.765625 5.484375 -10.890625 C 6.796875 -12.023438 8.09375 -12.59375 9.375 -12.59375 C 10.03125 -12.59375 10.515625 -12.421875 10.828125 -12.078125 C 11.148438 -11.742188 11.3125 -11.3125 11.3125 -10.78125 C 11.3125 -9.84375 10.859375 -8.894531 9.953125 -7.9375 C 9.054688 -6.988281 7.976562 -6.203125 6.71875 -5.578125 C 5.457031 -4.960938 4.375 -4.65625 3.46875 -4.65625 C 3.207031 -4.070312 3.078125 -3.523438 3.078125 -3.015625 C 3.078125 -2.304688 3.191406 -1.742188 3.421875 -1.328125 C 3.660156 -0.910156 4.128906 -0.703125 4.828125 -0.703125 C 5.828125 -0.703125 6.769531 -0.96875 7.65625 -1.5 C 8.550781 -2.039062 9.359375 -2.707031 10.078125 -3.5 C 10.804688 -4.289062 11.585938 -5.28125 12.421875 -6.46875 C 12.515625 -6.59375 12.609375 -6.65625 12.703125 -6.65625 C 12.773438 -6.65625 12.832031 -6.609375 12.875 -6.515625 C 12.925781 -6.421875 12.953125 -6.3125 12.953125 -6.1875 C 12.953125 -6.03125 12.890625 -5.835938 12.765625 -5.609375 C 12.648438 -5.390625 12.441406 -5.082031 12.140625 -4.6875 C 11.273438 -3.5 10.453125 -2.53125 9.671875 -1.78125 C 8.890625 -1.039062 8.070312 -0.46875 7.21875 -0.0625 C 6.375 0.332031 5.445312 0.53125 4.4375 0.53125 Z M 3.78125 -5.359375 C 4.550781 -5.398438 5.4375 -5.75 6.4375 -6.40625 C 7.4375 -7.0625 8.304688 -7.796875 9.046875 -8.609375 C 9.785156 -9.421875 10.15625 -10.070312 10.15625 -10.5625 C 10.15625 -10.894531 10.015625 -11.0625 9.734375 -11.0625 C 9.242188 -11.0625 8.613281 -10.78125 7.84375 -10.21875 C 7.070312 -9.65625 6.3125 -8.929688 5.5625 -8.046875 C 4.8125 -7.160156 4.21875 -6.265625 3.78125 -5.359375 Z M 3.78125 -5.359375 "/></g></g></g><g fill="#c6605d" fill-opacity="0.4"><g transform="translate(276.540991, 191.995286)"><g><path d="M 3.671875 0.28125 C 3.347656 0.28125 3.046875 0.226562 2.765625 0.125 C 2.484375 0.0195312 2.34375 -0.101562 2.34375 -0.25 C 2.34375 -0.289062 2.351562 -0.320312 2.375 -0.34375 L 3.046875 -1.5 C 4.117188 -3.300781 5 -4.878906 5.6875 -6.234375 C 6.375 -7.585938 6.925781 -8.972656 7.34375 -10.390625 C 7.394531 -10.535156 7.421875 -10.703125 7.421875 -10.890625 C 7.421875 -11.023438 7.382812 -11.117188 7.3125 -11.171875 C 7.238281 -11.234375 7.125 -11.265625 6.96875 -11.265625 C 6.664062 -11.265625 6.28125 -11 5.8125 -10.46875 C 5.34375 -9.945312 4.6875 -9.070312 3.84375 -7.84375 C 3.125 -6.789062 2.296875 -5.625 1.359375 -4.34375 C 1.171875 -4.082031 1.046875 -3.953125 0.984375 -3.953125 C 0.910156 -3.953125 0.851562 -4.007812 0.8125 -4.125 C 0.78125 -4.25 0.765625 -4.378906 0.765625 -4.515625 C 0.765625 -4.722656 0.789062 -4.863281 0.84375 -4.9375 C 2.03125 -6.632812 2.765625 -7.71875 3.046875 -8.1875 L 5.671875 -12.421875 C 5.742188 -12.535156 5.910156 -12.628906 6.171875 -12.703125 C 6.441406 -12.773438 6.695312 -12.8125 6.9375 -12.8125 C 7.300781 -12.8125 7.691406 -12.722656 8.109375 -12.546875 C 8.535156 -12.367188 8.890625 -12.128906 9.171875 -11.828125 C 9.453125 -11.523438 9.59375 -11.195312 9.59375 -10.84375 C 9.59375 -10.445312 9.492188 -10.015625 9.296875 -9.546875 C 9.097656 -9.085938 8.8125 -8.507812 8.4375 -7.8125 C 8.101562 -7.195312 7.878906 -6.765625 7.765625 -6.515625 C 8.816406 -7.867188 9.890625 -9.035156 10.984375 -10.015625 C 12.085938 -10.992188 13.101562 -11.484375 14.03125 -11.484375 C 14.632812 -11.484375 15.066406 -11.265625 15.328125 -10.828125 C 15.585938 -10.398438 15.71875 -9.847656 15.71875 -9.171875 C 15.71875 -8.703125 15.671875 -8.226562 15.578125 -7.75 C 15.484375 -7.269531 15.363281 -6.867188 15.21875 -6.546875 L 14.875 -5.703125 C 15.8125 -6.753906 16.503906 -7.519531 16.953125 -8 C 17.410156 -8.476562 17.753906 -8.820312 17.984375 -9.03125 C 18.359375 -9.382812 18.804688 -9.722656 19.328125 -10.046875 C 19.859375 -10.367188 20.359375 -10.53125 20.828125 -10.53125 C 21.265625 -10.53125 21.613281 -10.382812 21.875 -10.09375 C 22.132812 -9.800781 22.265625 -9.363281 22.265625 -8.78125 C 22.265625 -8.5 22.203125 -7.972656 22.078125 -7.203125 C 22.054688 -7.046875 21.992188 -6.535156 21.890625 -5.671875 C 21.785156 -4.804688 21.734375 -4.046875 21.734375 -3.390625 C 21.734375 -2.804688 21.785156 -2.351562 21.890625 -2.03125 C 21.992188 -1.707031 22.148438 -1.546875 22.359375 -1.546875 C 22.660156 -1.546875 23.125 -1.875 23.75 -2.53125 C 24.382812 -3.195312 25.179688 -4.125 26.140625 -5.3125 C 26.753906 -6.082031 27.128906 -6.46875 27.265625 -6.46875 C 27.335938 -6.46875 27.40625 -6.441406 27.46875 -6.390625 C 27.539062 -6.347656 27.578125 -6.28125 27.578125 -6.1875 C 27.578125 -6.03125 27.25 -5.5 26.59375 -4.59375 C 25.945312 -3.695312 25.390625 -2.984375 24.921875 -2.453125 C 24.265625 -1.703125 23.640625 -1.085938 23.046875 -0.609375 C 22.453125 -0.128906 21.898438 0.109375 21.390625 0.109375 C 20.753906 0.109375 20.3125 -0.195312 20.0625 -0.8125 C 19.820312 -1.4375 19.703125 -2.273438 19.703125 -3.328125 C 19.703125 -4.046875 19.738281 -4.753906 19.8125 -5.453125 C 19.851562 -6.347656 19.875 -6.96875 19.875 -7.3125 C 19.875 -7.851562 19.832031 -8.234375 19.75 -8.453125 C 19.675781 -8.671875 19.546875 -8.78125 19.359375 -8.78125 C 18.984375 -8.78125 18.523438 -8.546875 17.984375 -8.078125 C 17.453125 -7.617188 16.765625 -6.863281 15.921875 -5.8125 C 15.578125 -5.363281 15.226562 -4.875 14.875 -4.34375 C 14.519531 -3.820312 14.191406 -3.316406 13.890625 -2.828125 C 13.472656 -2.128906 13.21875 -1.710938 13.125 -1.578125 C 12.84375 -1.242188 12.554688 -0.992188 12.265625 -0.828125 C 11.972656 -0.671875 11.722656 -0.59375 11.515625 -0.59375 C 11.304688 -0.59375 11.132812 -0.660156 11 -0.796875 C 10.875 -0.941406 10.8125 -1.144531 10.8125 -1.40625 C 10.8125 -1.59375 10.867188 -1.859375 10.984375 -2.203125 C 11.128906 -2.554688 11.285156 -2.925781 11.453125 -3.3125 C 11.628906 -3.695312 11.789062 -4.0625 11.9375 -4.40625 C 12.519531 -5.664062 12.984375 -6.722656 13.328125 -7.578125 C 13.679688 -8.429688 13.859375 -9.066406 13.859375 -9.484375 C 13.859375 -9.765625 13.800781 -10.003906 13.6875 -10.203125 C 13.570312 -10.398438 13.394531 -10.5 13.15625 -10.5 C 12.90625 -10.5 12.507812 -10.316406 11.96875 -9.953125 C 11.4375 -9.597656 10.957031 -9.1875 10.53125 -8.71875 C 9.925781 -8.082031 9.203125 -7.21875 8.359375 -6.125 C 7.585938 -5.09375 6.851562 -4.015625 6.15625 -2.890625 C 5.457031 -1.773438 4.898438 -0.8125 4.484375 0 C 4.390625 0.1875 4.117188 0.28125 3.671875 0.28125 Z M 3.671875 0.28125 "/></g></g></g><g fill="#c6605d" fill-opacity="1"><g transform="translate(74.944387, 190.448483)"><g><path d="M 7.03125 3.296875 C 6.6875 3.296875 6.359375 3.179688 6.046875 2.953125 C 5.742188 2.734375 5.59375 2.398438 5.59375 1.953125 C 5.59375 1.679688 5.664062 1.332031 5.8125 0.90625 C 6.28125 -0.46875 6.875 -1.851562 7.59375 -3.25 C 8.320312 -4.65625 9.078125 -5.972656 9.859375 -7.203125 C 10.640625 -8.441406 11.625 -9.9375 12.8125 -11.6875 C 14.144531 -13.644531 15.460938 -15.570312 16.765625 -17.46875 C 18.066406 -19.375 19.09375 -20.84375 19.84375 -21.875 C 18.863281 -21.832031 17.90625 -21.765625 16.96875 -21.671875 C 16.039062 -21.578125 15.273438 -21.484375 14.671875 -21.390625 C 13.285156 -19.828125 11.851562 -18.5 10.375 -17.40625 C 8.894531 -16.320312 7.46875 -15.503906 6.09375 -14.953125 C 4.71875 -14.410156 3.457031 -14.140625 2.3125 -14.140625 C 1.863281 -14.140625 1.441406 -14.210938 1.046875 -14.359375 C 0.648438 -14.515625 0.328125 -14.71875 0.078125 -14.96875 C -0.160156 -15.226562 -0.28125 -15.523438 -0.28125 -15.859375 C -0.28125 -17.273438 0.441406 -18.441406 1.890625 -19.359375 C 3.335938 -20.285156 4.988281 -20.984375 6.84375 -21.453125 C 8.695312 -21.921875 10.707031 -22.316406 12.875 -22.640625 L 14.875 -22.953125 C 14.988281 -23.097656 15.09375 -23.242188 15.1875 -23.390625 C 15.28125 -23.546875 15.375 -23.679688 15.46875 -23.796875 C 15.613281 -24.054688 15.753906 -24.269531 15.890625 -24.4375 C 16.078125 -24.6875 16.253906 -24.8125 16.421875 -24.8125 C 16.535156 -24.8125 16.59375 -24.742188 16.59375 -24.609375 C 16.59375 -24.347656 16.332031 -23.820312 15.8125 -23.03125 C 17.632812 -23.238281 19.421875 -23.34375 21.171875 -23.34375 C 23.203125 -23.34375 25.050781 -23.203125 26.71875 -22.921875 C 28.382812 -22.640625 29.707031 -22.238281 30.6875 -21.71875 C 31.675781 -21.195312 32.171875 -20.570312 32.171875 -19.84375 C 32.171875 -19.539062 32.125 -19.289062 32.03125 -19.09375 C 31.9375 -18.894531 31.84375 -18.796875 31.75 -18.796875 C 31.675781 -18.796875 31.640625 -18.851562 31.640625 -18.96875 C 31.640625 -19.457031 31.179688 -19.941406 30.265625 -20.421875 C 29.359375 -20.898438 28.226562 -21.285156 26.875 -21.578125 C 25.519531 -21.867188 24.238281 -22.015625 23.03125 -22.015625 C 22.726562 -21.847656 22.03125 -21.117188 20.9375 -19.828125 C 19.851562 -18.535156 18.671875 -17.015625 17.390625 -15.265625 C 16.109375 -13.515625 15.015625 -11.9375 14.109375 -10.53125 C 12.378906 -7.820312 10.945312 -5.363281 9.8125 -3.15625 C 8.6875 -0.957031 8.125 0.535156 8.125 1.328125 C 8.125 1.535156 8.179688 1.695312 8.296875 1.8125 C 8.410156 1.9375 8.5625 2 8.75 2 C 9.195312 2 9.78125 1.707031 10.5 1.125 C 10.632812 1 10.726562 0.9375 10.78125 0.9375 C 10.820312 0.9375 10.84375 0.984375 10.84375 1.078125 C 10.84375 1.203125 10.8125 1.332031 10.75 1.46875 C 10.601562 1.75 10.304688 2.03125 9.859375 2.3125 C 9.421875 2.59375 8.929688 2.828125 8.390625 3.015625 C 7.859375 3.203125 7.40625 3.296875 7.03125 3.296875 Z M 2.09375 -15.296875 C 3.445312 -15.296875 5.132812 -15.859375 7.15625 -16.984375 C 9.175781 -18.117188 11.164062 -19.523438 13.125 -21.203125 C 11.050781 -20.878906 9.109375 -20.441406 7.296875 -19.890625 C 5.484375 -19.347656 4.035156 -18.734375 2.953125 -18.046875 C 1.867188 -17.359375 1.328125 -16.675781 1.328125 -16 C 1.328125 -15.789062 1.394531 -15.617188 1.53125 -15.484375 C 1.675781 -15.359375 1.863281 -15.296875 2.09375 -15.296875 Z M 2.09375 -15.296875 "/></g></g></g><g fill="#c6605d" fill-opacity="1"><g transform="translate(93.840115, 190.448483)"><g><path d="M 8.640625 0.453125 C 8.222656 0.453125 7.882812 0.285156 7.625 -0.046875 C 7.375 -0.390625 7.25 -0.875 7.25 -1.5 C 7.25 -2.34375 7.414062 -3.253906 7.75 -4.234375 C 8.09375 -5.210938 8.484375 -6.125 8.921875 -6.96875 C 8.597656 -6.613281 8.050781 -5.890625 7.28125 -4.796875 C 6.226562 -3.253906 5.304688 -2.039062 4.515625 -1.15625 C 3.722656 -0.269531 2.988281 0.171875 2.3125 0.171875 C 1.800781 0.171875 1.332031 0 0.90625 -0.34375 C 0.488281 -0.695312 0.28125 -1.257812 0.28125 -2.03125 C 0.28125 -2.75 0.484375 -3.601562 0.890625 -4.59375 C 1.296875 -5.59375 1.894531 -6.695312 2.6875 -7.90625 C 3.25 -8.769531 3.941406 -9.554688 4.765625 -10.265625 C 5.597656 -10.984375 6.460938 -11.546875 7.359375 -11.953125 C 8.265625 -12.359375 9.113281 -12.5625 9.90625 -12.5625 C 10.1875 -12.5625 10.566406 -12.503906 11.046875 -12.390625 C 11.523438 -12.273438 11.941406 -12.109375 12.296875 -11.890625 C 12.660156 -11.679688 12.84375 -11.441406 12.84375 -11.171875 C 12.84375 -11.078125 12.816406 -11 12.765625 -10.9375 C 12.722656 -10.875 12.664062 -10.84375 12.59375 -10.84375 C 12.53125 -10.84375 12.414062 -10.890625 12.25 -10.984375 C 11.6875 -11.316406 11.160156 -11.484375 10.671875 -11.484375 C 9.835938 -11.484375 8.914062 -11.164062 7.90625 -10.53125 C 6.90625 -9.90625 5.859375 -8.84375 4.765625 -7.34375 C 3.617188 -5.78125 2.835938 -4.5625 2.421875 -3.6875 C 2.015625 -2.8125 1.8125 -2.144531 1.8125 -1.6875 C 1.8125 -1.332031 1.941406 -1.15625 2.203125 -1.15625 C 2.484375 -1.15625 2.859375 -1.34375 3.328125 -1.71875 C 4.328125 -2.53125 5.269531 -3.46875 6.15625 -4.53125 C 7.039062 -5.59375 7.785156 -6.59375 8.390625 -7.53125 C 9.003906 -8.476562 9.4375 -9.242188 9.6875 -9.828125 C 9.71875 -9.921875 9.800781 -9.96875 9.9375 -9.96875 C 10.125 -9.96875 10.332031 -9.882812 10.5625 -9.71875 C 10.800781 -9.5625 11.003906 -9.359375 11.171875 -9.109375 C 11.347656 -8.867188 11.4375 -8.609375 11.4375 -8.328125 C 11.4375 -8.117188 11.394531 -7.929688 11.3125 -7.765625 C 10.75 -6.785156 10.285156 -5.847656 9.921875 -4.953125 C 9.554688 -4.054688 9.375 -3.234375 9.375 -2.484375 C 9.375 -1.804688 9.585938 -1.46875 10.015625 -1.46875 C 10.359375 -1.46875 10.78125 -1.707031 11.28125 -2.1875 C 11.789062 -2.664062 12.488281 -3.476562 13.375 -4.625 C 14.019531 -5.4375 14.4375 -5.945312 14.625 -6.15625 C 14.8125 -6.363281 14.960938 -6.46875 15.078125 -6.46875 C 15.171875 -6.46875 15.25 -6.441406 15.3125 -6.390625 C 15.375 -6.347656 15.40625 -6.296875 15.40625 -6.234375 C 15.40625 -6.140625 15.25 -5.859375 14.9375 -5.390625 C 14.40625 -4.523438 13.769531 -3.648438 13.03125 -2.765625 C 12.300781 -1.878906 11.546875 -1.117188 10.765625 -0.484375 C 9.984375 0.140625 9.273438 0.453125 8.640625 0.453125 Z M 8.640625 0.453125 "/></g></g></g><g fill="#c6605d" fill-opacity="1"><g transform="translate(106.752197, 190.448483)"><g><path d="M 3.671875 0.28125 C 3.347656 0.28125 3.046875 0.226562 2.765625 0.125 C 2.484375 0.0195312 2.34375 -0.101562 2.34375 -0.25 C 2.34375 -0.289062 2.351562 -0.320312 2.375 -0.34375 L 3.046875 -1.5 C 4.117188 -3.300781 5 -4.878906 5.6875 -6.234375 C 6.375 -7.585938 6.925781 -8.972656 7.34375 -10.390625 C 7.394531 -10.535156 7.421875 -10.703125 7.421875 -10.890625 C 7.421875 -11.023438 7.382812 -11.117188 7.3125 -11.171875 C 7.238281 -11.234375 7.125 -11.265625 6.96875 -11.265625 C 6.664062 -11.265625 6.28125 -11 5.8125 -10.46875 C 5.34375 -9.945312 4.6875 -9.070312 3.84375 -7.84375 C 3.125 -6.789062 2.296875 -5.625 1.359375 -4.34375 C 1.171875 -4.082031 1.046875 -3.953125 0.984375 -3.953125 C 0.910156 -3.953125 0.851562 -4.007812 0.8125 -4.125 C 0.78125 -4.25 0.765625 -4.378906 0.765625 -4.515625 C 0.765625 -4.722656 0.789062 -4.863281 0.84375 -4.9375 C 2.03125 -6.632812 2.765625 -7.71875 3.046875 -8.1875 L 5.671875 -12.421875 C 5.742188 -12.535156 5.910156 -12.628906 6.171875 -12.703125 C 6.441406 -12.773438 6.695312 -12.8125 6.9375 -12.8125 C 7.300781 -12.8125 7.691406 -12.722656 8.109375 -12.546875 C 8.535156 -12.367188 8.890625 -12.128906 9.171875 -11.828125 C 9.453125 -11.523438 9.59375 -11.195312 9.59375 -10.84375 C 9.59375 -10.445312 9.492188 -10.015625 9.296875 -9.546875 C 9.097656 -9.085938 8.8125 -8.507812 8.4375 -7.8125 C 8.101562 -7.195312 7.878906 -6.765625 7.765625 -6.515625 C 8.816406 -7.867188 9.890625 -9.035156 10.984375 -10.015625 C 12.085938 -10.992188 13.101562 -11.484375 14.03125 -11.484375 C 14.632812 -11.484375 15.066406 -11.265625 15.328125 -10.828125 C 15.585938 -10.398438 15.71875 -9.847656 15.71875 -9.171875 C 15.71875 -8.703125 15.671875 -8.226562 15.578125 -7.75 C 15.484375 -7.269531 15.363281 -6.867188 15.21875 -6.546875 L 14.875 -5.703125 C 15.8125 -6.753906 16.503906 -7.519531 16.953125 -8 C 17.410156 -8.476562 17.753906 -8.820312 17.984375 -9.03125 C 18.359375 -9.382812 18.804688 -9.722656 19.328125 -10.046875 C 19.859375 -10.367188 20.359375 -10.53125 20.828125 -10.53125 C 21.265625 -10.53125 21.613281 -10.382812 21.875 -10.09375 C 22.132812 -9.800781 22.265625 -9.363281 22.265625 -8.78125 C 22.265625 -8.5 22.203125 -7.972656 22.078125 -7.203125 C 22.054688 -7.046875 21.992188 -6.535156 21.890625 -5.671875 C 21.785156 -4.804688 21.734375 -4.046875 21.734375 -3.390625 C 21.734375 -2.804688 21.785156 -2.351562 21.890625 -2.03125 C 21.992188 -1.707031 22.148438 -1.546875 22.359375 -1.546875 C 22.660156 -1.546875 23.125 -1.875 23.75 -2.53125 C 24.382812 -3.195312 25.179688 -4.125 26.140625 -5.3125 C 26.753906 -6.082031 27.128906 -6.46875 27.265625 -6.46875 C 27.335938 -6.46875 27.40625 -6.441406 27.46875 -6.390625 C 27.539062 -6.347656 27.578125 -6.28125 27.578125 -6.1875 C 27.578125 -6.03125 27.25 -5.5 26.59375 -4.59375 C 25.945312 -3.695312 25.390625 -2.984375 24.921875 -2.453125 C 24.265625 -1.703125 23.640625 -1.085938 23.046875 -0.609375 C 22.453125 -0.128906 21.898438 0.109375 21.390625 0.109375 C 20.753906 0.109375 20.3125 -0.195312 20.0625 -0.8125 C 19.820312 -1.4375 19.703125 -2.273438 19.703125 -3.328125 C 19.703125 -4.046875 19.738281 -4.753906 19.8125 -5.453125 C 19.851562 -6.347656 19.875 -6.96875 19.875 -7.3125 C 19.875 -7.851562 19.832031 -8.234375 19.75 -8.453125 C 19.675781 -8.671875 19.546875 -8.78125 19.359375 -8.78125 C 18.984375 -8.78125 18.523438 -8.546875 17.984375 -8.078125 C 17.453125 -7.617188 16.765625 -6.863281 15.921875 -5.8125 C 15.578125 -5.363281 15.226562 -4.875 14.875 -4.34375 C 14.519531 -3.820312 14.191406 -3.316406 13.890625 -2.828125 C 13.472656 -2.128906 13.21875 -1.710938 13.125 -1.578125 C 12.84375 -1.242188 12.554688 -0.992188 12.265625 -0.828125 C 11.972656 -0.671875 11.722656 -0.59375 11.515625 -0.59375 C 11.304688 -0.59375 11.132812 -0.660156 11 -0.796875 C 10.875 -0.941406 10.8125 -1.144531 10.8125 -1.40625 C 10.8125 -1.59375 10.867188 -1.859375 10.984375 -2.203125 C 11.128906 -2.554688 11.285156 -2.925781 11.453125 -3.3125 C 11.628906 -3.695312 11.789062 -4.0625 11.9375 -4.40625 C 12.519531 -5.664062 12.984375 -6.722656 13.328125 -7.578125 C 13.679688 -8.429688 13.859375 -9.066406 13.859375 -9.484375 C 13.859375 -9.765625 13.800781 -10.003906 13.6875 -10.203125 C 13.570312 -10.398438 13.394531 -10.5 13.15625 -10.5 C 12.90625 -10.5 12.507812 -10.316406 11.96875 -9.953125 C 11.4375 -9.597656 10.957031 -9.1875 10.53125 -8.71875 C 9.925781 -8.082031 9.203125 -7.21875 8.359375 -6.125 C 7.585938 -5.09375 6.851562 -4.015625 6.15625 -2.890625 C 5.457031 -1.773438 4.898438 -0.8125 4.484375 0 C 4.390625 0.1875 4.117188 0.28125 3.671875 0.28125 Z M 3.671875 0.28125 "/></g></g></g><g fill="#c6605d" fill-opacity="1"><g transform="translate(131.806539, 190.448483)"><g><path d="M 4.4375 0.53125 C 3.4375 0.53125 2.601562 0.285156 1.9375 -0.203125 C 1.269531 -0.691406 0.9375 -1.546875 0.9375 -2.765625 C 0.9375 -3.910156 1.367188 -5.269531 2.234375 -6.84375 C 3.097656 -8.414062 4.179688 -9.765625 5.484375 -10.890625 C 6.796875 -12.023438 8.09375 -12.59375 9.375 -12.59375 C 10.03125 -12.59375 10.515625 -12.421875 10.828125 -12.078125 C 11.148438 -11.742188 11.3125 -11.3125 11.3125 -10.78125 C 11.3125 -9.84375 10.859375 -8.894531 9.953125 -7.9375 C 9.054688 -6.988281 7.976562 -6.203125 6.71875 -5.578125 C 5.457031 -4.960938 4.375 -4.65625 3.46875 -4.65625 C 3.207031 -4.070312 3.078125 -3.523438 3.078125 -3.015625 C 3.078125 -2.304688 3.191406 -1.742188 3.421875 -1.328125 C 3.660156 -0.910156 4.128906 -0.703125 4.828125 -0.703125 C 5.828125 -0.703125 6.769531 -0.96875 7.65625 -1.5 C 8.550781 -2.039062 9.359375 -2.707031 10.078125 -3.5 C 10.804688 -4.289062 11.585938 -5.28125 12.421875 -6.46875 C 12.515625 -6.59375 12.609375 -6.65625 12.703125 -6.65625 C 12.773438 -6.65625 12.832031 -6.609375 12.875 -6.515625 C 12.925781 -6.421875 12.953125 -6.3125 12.953125 -6.1875 C 12.953125 -6.03125 12.890625 -5.835938 12.765625 -5.609375 C 12.648438 -5.390625 12.441406 -5.082031 12.140625 -4.6875 C 11.273438 -3.5 10.453125 -2.53125 9.671875 -1.78125 C 8.890625 -1.039062 8.070312 -0.46875 7.21875 -0.0625 C 6.375 0.332031 5.445312 0.53125 4.4375 0.53125 Z M 3.78125 -5.359375 C 4.550781 -5.398438 5.4375 -5.75 6.4375 -6.40625 C 7.4375 -7.0625 8.304688 -7.796875 9.046875 -8.609375 C 9.785156 -9.421875 10.15625 -10.070312 10.15625 -10.5625 C 10.15625 -10.894531 10.015625 -11.0625 9.734375 -11.0625 C 9.242188 -11.0625 8.613281 -10.78125 7.84375 -10.21875 C 7.070312 -9.65625 6.3125 -8.929688 5.5625 -8.046875 C 4.8125 -7.160156 4.21875 -6.265625 3.78125 -5.359375 Z M 3.78125 -5.359375 "/></g></g></g><g fill="#c6605d" fill-opacity="1"><g transform="translate(142.269173, 190.448483)"><g><path d="M 6.125 0.53125 C 4.957031 0.53125 4.375 -0.160156 4.375 -1.546875 C 4.375 -2.097656 4.46875 -2.707031 4.65625 -3.375 C 4.84375 -4.039062 5.039062 -4.617188 5.25 -5.109375 C 5.832031 -6.460938 6.6875 -8.050781 7.8125 -9.875 C 7.53125 -9.820312 7.257812 -9.796875 7 -9.796875 C 6.675781 -9.796875 6.359375 -9.820312 6.046875 -9.875 C 5.742188 -9.9375 5.523438 -10.03125 5.390625 -10.15625 C 5.128906 -9.84375 4.601562 -9.070312 3.8125 -7.84375 C 2.90625 -6.4375 2.253906 -5.472656 1.859375 -4.953125 C 1.460938 -4.429688 1.191406 -4.171875 1.046875 -4.171875 C 0.972656 -4.171875 0.90625 -4.222656 0.84375 -4.328125 C 0.789062 -4.429688 0.765625 -4.539062 0.765625 -4.65625 C 0.765625 -4.769531 0.8125 -4.882812 0.90625 -5 C 2.125 -6.78125 3.289062 -8.679688 4.40625 -10.703125 C 4.101562 -11.015625 3.953125 -11.351562 3.953125 -11.71875 C 3.953125 -12.113281 4.0625 -12.539062 4.28125 -13 C 4.507812 -13.457031 4.832031 -13.847656 5.25 -14.171875 C 5.664062 -14.503906 6.179688 -14.671875 6.796875 -14.671875 C 7.066406 -14.671875 7.265625 -14.628906 7.390625 -14.546875 C 7.523438 -14.460938 7.59375 -14.328125 7.59375 -14.140625 C 7.59375 -13.742188 7.21875 -13.046875 6.46875 -12.046875 C 6.332031 -11.828125 6.207031 -11.628906 6.09375 -11.453125 C 5.976562 -11.285156 5.921875 -11.164062 5.921875 -11.09375 C 5.941406 -10.976562 6.144531 -10.875 6.53125 -10.78125 C 6.914062 -10.6875 7.296875 -10.640625 7.671875 -10.640625 C 7.878906 -10.640625 8.113281 -10.679688 8.375 -10.765625 C 8.644531 -10.847656 8.957031 -10.890625 9.3125 -10.890625 C 9.707031 -10.890625 10.007812 -10.8125 10.21875 -10.65625 C 10.425781 -10.507812 10.53125 -10.34375 10.53125 -10.15625 C 10.53125 -9.84375 10.332031 -9.46875 9.9375 -9.03125 C 9.40625 -8.445312 8.867188 -7.738281 8.328125 -6.90625 C 7.796875 -6.082031 7.347656 -5.226562 6.984375 -4.34375 C 6.617188 -3.457031 6.4375 -2.660156 6.4375 -1.953125 C 6.4375 -1.441406 6.644531 -1.1875 7.0625 -1.1875 C 7.394531 -1.1875 7.757812 -1.289062 8.15625 -1.5 C 8.550781 -1.707031 9.09375 -2.1875 9.78125 -2.9375 C 10.46875 -3.6875 11.3125 -4.816406 12.3125 -6.328125 C 12.40625 -6.472656 12.484375 -6.578125 12.546875 -6.640625 C 12.609375 -6.710938 12.660156 -6.75 12.703125 -6.75 C 12.796875 -6.75 12.878906 -6.691406 12.953125 -6.578125 C 13.023438 -6.460938 13.0625 -6.347656 13.0625 -6.234375 C 13.0625 -6.140625 13.015625 -6.019531 12.921875 -5.875 C 11.703125 -4.0625 10.519531 -2.539062 9.375 -1.3125 C 8.238281 -0.0820312 7.15625 0.53125 6.125 0.53125 Z M 6.125 0.53125 "/></g></g></g><g fill="#c6605d" fill-opacity="1"><g transform="translate(152.731808, 190.448483)"><g/></g></g><g fill="#c6605d" fill-opacity="1"><g transform="translate(159.730224, 190.448483)"><g><path d="M 8.71875 8.125 C 8.601562 8.125 8.503906 8.09375 8.421875 8.03125 C 8.335938 7.96875 8.296875 7.894531 8.296875 7.8125 C 8.296875 7.71875 8.390625 7.484375 8.578125 7.109375 C 9.484375 5.242188 10.234375 3.765625 10.828125 2.671875 C 11.421875 1.585938 12.09375 0.488281 12.84375 -0.625 C 13.59375 -1.75 14.65625 -3.269531 16.03125 -5.1875 C 17.101562 -6.65625 18.410156 -8.335938 19.953125 -10.234375 C 21.492188 -12.140625 22.53125 -13.328125 23.0625 -13.796875 C 23.71875 -16.285156 24.046875 -18.394531 24.046875 -20.125 C 24.046875 -21.914062 23.726562 -23.191406 23.09375 -23.953125 C 22.46875 -24.710938 21.582031 -25.09375 20.4375 -25.09375 C 19.4375 -25.09375 18.351562 -24.863281 17.1875 -24.40625 C 16.019531 -23.957031 14.828125 -23.40625 13.609375 -22.75 C 11.554688 -21.625 9.523438 -20.273438 7.515625 -18.703125 C 5.515625 -17.128906 3.921875 -15.65625 2.734375 -14.28125 C 2.492188 -14.019531 2.375 -13.859375 2.375 -13.796875 C 2.375 -13.742188 2.4375 -13.71875 2.5625 -13.71875 C 2.675781 -13.71875 2.863281 -13.734375 3.125 -13.765625 C 3.394531 -13.804688 3.613281 -13.828125 3.78125 -13.828125 C 3.894531 -13.828125 3.972656 -13.820312 4.015625 -13.8125 C 4.066406 -13.800781 4.09375 -13.769531 4.09375 -13.71875 L 3.78125 -13.578125 C 3.101562 -13.203125 2.53125 -13.015625 2.0625 -13.015625 C 1.8125 -13.015625 1.566406 -13.128906 1.328125 -13.359375 C 1.097656 -13.597656 0.910156 -13.859375 0.765625 -14.140625 C 0.628906 -14.421875 0.5625 -14.609375 0.5625 -14.703125 C 0.5625 -15.304688 1.15625 -16.144531 2.34375 -17.21875 C 3.53125 -18.289062 5.070312 -19.414062 6.96875 -20.59375 C 8.875 -21.769531 10.820312 -22.789062 12.8125 -23.65625 C 16.195312 -25.15625 18.9375 -25.90625 21.03125 -25.90625 C 22.625 -25.90625 23.894531 -25.441406 24.84375 -24.515625 C 25.800781 -23.597656 26.28125 -22.085938 26.28125 -19.984375 C 26.28125 -19.097656 26.1875 -18.070312 26 -16.90625 C 28.144531 -19.050781 30.25 -20.847656 32.3125 -22.296875 C 34.382812 -23.742188 36.097656 -24.46875 37.453125 -24.46875 C 38.222656 -24.46875 38.851562 -24.175781 39.34375 -23.59375 C 39.832031 -23.007812 40.078125 -22.097656 40.078125 -20.859375 C 40.078125 -19.972656 39.910156 -18.921875 39.578125 -17.703125 C 39.253906 -16.492188 38.859375 -15.289062 38.390625 -14.09375 C 37.921875 -12.90625 37.335938 -11.472656 36.640625 -9.796875 C 36.148438 -8.648438 35.753906 -7.679688 35.453125 -6.890625 C 35.316406 -6.546875 35.25 -6.3125 35.25 -6.1875 C 35.25 -6.101562 35.28125 -6.0625 35.34375 -6.0625 C 35.4375 -6.0625 35.625 -6.222656 35.90625 -6.546875 C 39.550781 -11.046875 42.972656 -13.972656 46.171875 -15.328125 C 46.753906 -15.566406 47.265625 -15.6875 47.703125 -15.6875 C 48.378906 -15.6875 48.71875 -15.414062 48.71875 -14.875 C 48.71875 -14.6875 48.660156 -14.414062 48.546875 -14.0625 C 47.753906 -11.875 46.957031 -9.351562 46.15625 -6.5 C 45.363281 -3.65625 44.96875 -1.082031 44.96875 1.21875 C 44.96875 2.8125 45.226562 4.066406 45.75 4.984375 C 46.28125 5.910156 47.128906 6.375 48.296875 6.375 C 49.234375 6.375 50.28125 6.019531 51.4375 5.3125 C 52.59375 4.613281 53.691406 3.671875 54.734375 2.484375 C 54.921875 2.273438 55.0625 2.128906 55.15625 2.046875 C 55.25 1.960938 55.320312 1.921875 55.375 1.921875 C 55.414062 1.921875 55.453125 1.941406 55.484375 1.984375 C 55.523438 2.035156 55.546875 2.097656 55.546875 2.171875 C 55.546875 2.285156 55.503906 2.429688 55.421875 2.609375 C 55.335938 2.785156 55.21875 2.96875 55.0625 3.15625 C 53.820312 4.570312 52.535156 5.65625 51.203125 6.40625 C 49.867188 7.15625 48.617188 7.53125 47.453125 7.53125 C 45.828125 7.53125 44.648438 6.863281 43.921875 5.53125 C 43.203125 4.195312 42.84375 2.4375 42.84375 0.25 C 42.84375 -1.40625 43.007812 -3.179688 43.34375 -5.078125 C 43.6875 -6.984375 44.097656 -8.734375 44.578125 -10.328125 C 45.054688 -11.929688 45.46875 -13.117188 45.8125 -13.890625 C 44.90625 -13.492188 43.796875 -12.722656 42.484375 -11.578125 C 41.179688 -10.441406 39.914062 -9.195312 38.6875 -7.84375 C 37.46875 -6.488281 36.519531 -5.332031 35.84375 -4.375 C 35.46875 -3.832031 35.144531 -3.398438 34.875 -3.078125 C 34.601562 -2.753906 34.398438 -2.550781 34.265625 -2.46875 C 34.128906 -2.382812 33.941406 -2.34375 33.703125 -2.34375 C 33.472656 -2.34375 33.265625 -2.390625 33.078125 -2.484375 C 32.890625 -2.578125 32.796875 -2.691406 32.796875 -2.828125 C 32.796875 -2.972656 32.851562 -3.210938 32.96875 -3.546875 C 33.082031 -3.890625 33.210938 -4.257812 33.359375 -4.65625 C 33.867188 -6.050781 34.414062 -7.820312 35 -9.96875 C 35.582031 -12.113281 36.070312 -14.175781 36.46875 -16.15625 C 36.863281 -18.144531 37.0625 -19.628906 37.0625 -20.609375 C 37.0625 -21.378906 36.960938 -21.953125 36.765625 -22.328125 C 36.566406 -22.703125 36.269531 -22.890625 35.875 -22.890625 C 34.9375 -22.890625 33.5 -22.070312 31.5625 -20.4375 C 29.632812 -18.800781 27.609375 -16.851562 25.484375 -14.59375 C 24.710938 -11.539062 23.59375 -8.585938 22.125 -5.734375 C 20.65625 -2.890625 19.0625 -0.585938 17.34375 1.171875 C 15.625 2.929688 14.03125 3.8125 12.5625 3.8125 C 12.375 3.8125 12.179688 3.785156 11.984375 3.734375 C 11.785156 3.691406 11.617188 3.632812 11.484375 3.5625 C 10.429688 5.457031 9.695312 6.753906 9.28125 7.453125 C 9.019531 7.898438 8.832031 8.125 8.71875 8.125 Z M 11.96875 2.875 C 13.019531 2.820312 14.1875 2.132812 15.46875 0.8125 C 16.75 -0.5 17.984375 -2.195312 19.171875 -4.28125 C 20.367188 -6.375 21.363281 -8.5625 22.15625 -10.84375 C 20.726562 -9.28125 19.078125 -7.226562 17.203125 -4.6875 C 15.328125 -2.144531 13.582031 0.375 11.96875 2.875 Z M 11.96875 2.875 "/></g></g></g><g fill="#c6605d" fill-opacity="1"><g transform="translate(208.929115, 190.448483)"><g><path d="M 2.828125 0.109375 C 2.554688 0.109375 2.328125 0.015625 2.140625 -0.171875 C 1.953125 -0.359375 1.859375 -0.613281 1.859375 -0.9375 C 1.859375 -1.34375 2.0625 -1.617188 2.46875 -1.765625 C 2.875 -1.921875 3.3125 -2 3.78125 -2 C 3.96875 -2 4.097656 -1.925781 4.171875 -1.78125 C 4.191406 -1.738281 4.203125 -1.644531 4.203125 -1.5 C 4.203125 -1.25 4.125 -0.992188 3.96875 -0.734375 C 3.820312 -0.472656 3.632812 -0.265625 3.40625 -0.109375 C 3.1875 0.0351562 2.992188 0.109375 2.828125 0.109375 Z M 2.828125 0.109375 "/></g></g></g><g fill="#c6605d" fill-opacity="1"><g transform="translate(215.227691, 190.448483)"><g/></g></g><g fill="#c6605d" fill-opacity="1"><g transform="translate(222.226108, 190.448483)"><g><path d="M 5.1875 3.78125 C 3.6875 3.78125 2.488281 3.582031 1.59375 3.1875 C 0.695312 2.789062 0.25 2.207031 0.25 1.4375 C 0.25 0.363281 0.914062 -0.5625 2.25 -1.34375 C 3.59375 -2.125 5.550781 -2.796875 8.125 -3.359375 C 8.820312 -3.523438 9.265625 -3.609375 9.453125 -3.609375 C 9.609375 -3.609375 9.734375 -3.570312 9.828125 -3.5 C 9.921875 -3.425781 9.96875 -3.359375 9.96875 -3.296875 C 9.96875 -3.148438 9.84375 -3.039062 9.59375 -2.96875 C 8 -2.476562 6.617188 -1.988281 5.453125 -1.5 C 4.285156 -1.007812 3.398438 -0.539062 2.796875 -0.09375 C 2.191406 0.34375 1.890625 0.734375 1.890625 1.078125 C 1.890625 1.566406 2.269531 1.953125 3.03125 2.234375 C 3.789062 2.515625 4.765625 2.65625 5.953125 2.65625 C 7.191406 2.65625 8.484375 2.503906 9.828125 2.203125 C 11.179688 1.898438 12.441406 1.425781 13.609375 0.78125 C 14.773438 0.144531 15.6875 -0.628906 16.34375 -1.546875 C 16.71875 -2.054688 16.90625 -2.53125 16.90625 -2.96875 C 16.90625 -3.394531 16.753906 -3.78125 16.453125 -4.125 C 16.148438 -4.476562 15.628906 -4.84375 14.890625 -5.21875 C 14.160156 -5.59375 13.128906 -6.035156 11.796875 -6.546875 C 10.328125 -7.109375 9.148438 -7.601562 8.265625 -8.03125 C 7.378906 -8.46875 6.617188 -9.007812 5.984375 -9.65625 C 5.359375 -10.3125 5.046875 -11.082031 5.046875 -11.96875 C 5.046875 -14.039062 6.144531 -16.003906 8.34375 -17.859375 C 10.550781 -19.722656 13.21875 -21.21875 16.34375 -22.34375 C 19.46875 -23.476562 22.234375 -24.046875 24.640625 -24.046875 C 26.085938 -24.046875 27.171875 -23.8125 27.890625 -23.34375 C 28.617188 -22.875 28.984375 -22.253906 28.984375 -21.484375 C 28.984375 -20.347656 28.519531 -19.179688 27.59375 -17.984375 C 26.675781 -16.796875 25.445312 -15.738281 23.90625 -14.8125 C 22.363281 -13.894531 20.726562 -13.25 19 -12.875 C 18.445312 -12.738281 18.039062 -12.671875 17.78125 -12.671875 C 17.632812 -12.671875 17.5625 -12.707031 17.5625 -12.78125 C 17.5625 -12.894531 17.65625 -13.023438 17.84375 -13.171875 C 18.03125 -13.328125 18.226562 -13.441406 18.4375 -13.515625 C 19.1875 -13.796875 20.3125 -14.394531 21.8125 -15.3125 C 23.320312 -16.226562 24.664062 -17.207031 25.84375 -18.25 C 27.019531 -19.289062 27.609375 -20.171875 27.609375 -20.890625 C 27.609375 -21.335938 27.320312 -21.703125 26.75 -21.984375 C 26.1875 -22.265625 25.296875 -22.40625 24.078125 -22.40625 C 22.003906 -22.40625 19.691406 -21.925781 17.140625 -20.96875 C 14.597656 -20.007812 12.445312 -18.742188 10.6875 -17.171875 C 8.925781 -15.597656 8.046875 -13.9375 8.046875 -12.1875 C 8.046875 -11.476562 8.265625 -10.835938 8.703125 -10.265625 C 9.148438 -9.703125 9.867188 -9.15625 10.859375 -8.625 C 11.859375 -8.101562 13.207031 -7.570312 14.90625 -7.03125 C 16.257812 -6.59375 17.316406 -6.195312 18.078125 -5.84375 C 18.835938 -5.488281 19.382812 -5.128906 19.71875 -4.765625 C 20.0625 -4.410156 20.234375 -4.007812 20.234375 -3.5625 C 20.234375 -2.894531 19.8125 -2.101562 18.96875 -1.1875 C 18.03125 -0.1875 16.769531 0.691406 15.1875 1.453125 C 13.601562 2.210938 11.921875 2.789062 10.140625 3.1875 C 8.367188 3.582031 6.71875 3.78125 5.1875 3.78125 Z M 5.1875 3.78125 "/></g></g></g><g fill="#c6605d" fill-opacity="1"><g transform="translate(242.591509, 190.448483)"><g><path d="M 8.640625 0.453125 C 8.222656 0.453125 7.882812 0.285156 7.625 -0.046875 C 7.375 -0.390625 7.25 -0.875 7.25 -1.5 C 7.25 -2.34375 7.414062 -3.253906 7.75 -4.234375 C 8.09375 -5.210938 8.484375 -6.125 8.921875 -6.96875 C 8.597656 -6.613281 8.050781 -5.890625 7.28125 -4.796875 C 6.226562 -3.253906 5.304688 -2.039062 4.515625 -1.15625 C 3.722656 -0.269531 2.988281 0.171875 2.3125 0.171875 C 1.800781 0.171875 1.332031 0 0.90625 -0.34375 C 0.488281 -0.695312 0.28125 -1.257812 0.28125 -2.03125 C 0.28125 -2.75 0.484375 -3.601562 0.890625 -4.59375 C 1.296875 -5.59375 1.894531 -6.695312 2.6875 -7.90625 C 3.25 -8.769531 3.941406 -9.554688 4.765625 -10.265625 C 5.597656 -10.984375 6.460938 -11.546875 7.359375 -11.953125 C 8.265625 -12.359375 9.113281 -12.5625 9.90625 -12.5625 C 10.1875 -12.5625 10.566406 -12.503906 11.046875 -12.390625 C 11.523438 -12.273438 11.941406 -12.109375 12.296875 -11.890625 C 12.660156 -11.679688 12.84375 -11.441406 12.84375 -11.171875 C 12.84375 -11.078125 12.816406 -11 12.765625 -10.9375 C 12.722656 -10.875 12.664062 -10.84375 12.59375 -10.84375 C 12.53125 -10.84375 12.414062 -10.890625 12.25 -10.984375 C 11.6875 -11.316406 11.160156 -11.484375 10.671875 -11.484375 C 9.835938 -11.484375 8.914062 -11.164062 7.90625 -10.53125 C 6.90625 -9.90625 5.859375 -8.84375 4.765625 -7.34375 C 3.617188 -5.78125 2.835938 -4.5625 2.421875 -3.6875 C 2.015625 -2.8125 1.8125 -2.144531 1.8125 -1.6875 C 1.8125 -1.332031 1.941406 -1.15625 2.203125 -1.15625 C 2.484375 -1.15625 2.859375 -1.34375 3.328125 -1.71875 C 4.328125 -2.53125 5.269531 -3.46875 6.15625 -4.53125 C 7.039062 -5.59375 7.785156 -6.59375 8.390625 -7.53125 C 9.003906 -8.476562 9.4375 -9.242188 9.6875 -9.828125 C 9.71875 -9.921875 9.800781 -9.96875 9.9375 -9.96875 C 10.125 -9.96875 10.332031 -9.882812 10.5625 -9.71875 C 10.800781 -9.5625 11.003906 -9.359375 11.171875 -9.109375 C 11.347656 -8.867188 11.4375 -8.609375 11.4375 -8.328125 C 11.4375 -8.117188 11.394531 -7.929688 11.3125 -7.765625 C 10.75 -6.785156 10.285156 -5.847656 9.921875 -4.953125 C 9.554688 -4.054688 9.375 -3.234375 9.375 -2.484375 C 9.375 -1.804688 9.585938 -1.46875 10.015625 -1.46875 C 10.359375 -1.46875 10.78125 -1.707031 11.28125 -2.1875 C 11.789062 -2.664062 12.488281 -3.476562 13.375 -4.625 C 14.019531 -5.4375 14.4375 -5.945312 14.625 -6.15625 C 14.8125 -6.363281 14.960938 -6.46875 15.078125 -6.46875 C 15.171875 -6.46875 15.25 -6.441406 15.3125 -6.390625 C 15.375 -6.347656 15.40625 -6.296875 15.40625 -6.234375 C 15.40625 -6.140625 15.25 -5.859375 14.9375 -5.390625 C 14.40625 -4.523438 13.769531 -3.648438 13.03125 -2.765625 C 12.300781 -1.878906 11.546875 -1.117188 10.765625 -0.484375 C 9.984375 0.140625 9.273438 0.453125 8.640625 0.453125 Z M 8.640625 0.453125 "/></g></g></g><g fill="#c6605d" fill-opacity="1"><g transform="translate(255.503591, 190.448483)"><g><path d="M 3.390625 0.53125 C 2.460938 0.53125 1.785156 0.269531 1.359375 -0.25 C 0.941406 -0.78125 0.734375 -1.476562 0.734375 -2.34375 C 0.734375 -3.300781 0.9375 -4.367188 1.34375 -5.546875 C 1.75 -6.722656 2.476562 -8.222656 3.53125 -10.046875 C 5.03125 -12.660156 6.566406 -15.070312 8.140625 -17.28125 C 9.710938 -19.5 11.15625 -21.273438 12.46875 -22.609375 C 13.789062 -23.941406 14.828125 -24.609375 15.578125 -24.609375 C 15.828125 -24.609375 16.238281 -24.476562 16.8125 -24.21875 C 17.382812 -23.957031 17.890625 -23.640625 18.328125 -23.265625 C 18.773438 -22.898438 19 -22.566406 19 -22.265625 C 19 -22.023438 18.816406 -21.640625 18.453125 -21.109375 C 18.097656 -20.585938 17.601562 -19.976562 16.96875 -19.28125 C 15.757812 -17.90625 13.957031 -16.148438 11.5625 -14.015625 C 9.175781 -11.878906 6.941406 -10.054688 4.859375 -8.546875 C 3.460938 -5.972656 2.765625 -3.894531 2.765625 -2.3125 C 2.765625 -1.28125 3.113281 -0.765625 3.8125 -0.765625 C 4.8125 -0.765625 5.875 -1.195312 7 -2.0625 C 8.125 -2.925781 9.453125 -4.394531 10.984375 -6.46875 C 11.078125 -6.59375 11.160156 -6.65625 11.234375 -6.65625 C 11.328125 -6.65625 11.394531 -6.609375 11.4375 -6.515625 C 11.488281 -6.421875 11.515625 -6.300781 11.515625 -6.15625 C 11.515625 -6.09375 11.457031 -5.953125 11.34375 -5.734375 C 10.707031 -4.617188 9.953125 -3.582031 9.078125 -2.625 C 8.203125 -1.664062 7.269531 -0.898438 6.28125 -0.328125 C 5.289062 0.242188 4.328125 0.53125 3.390625 0.53125 Z M 5.984375 -10.4375 C 8.765625 -12.882812 11.332031 -15.273438 13.6875 -17.609375 C 16.039062 -19.941406 17.21875 -21.429688 17.21875 -22.078125 C 17.21875 -22.316406 17.132812 -22.492188 16.96875 -22.609375 C 16.8125 -22.722656 16.613281 -22.78125 16.375 -22.78125 C 15.488281 -22.78125 14.234375 -21.816406 12.609375 -19.890625 C 10.992188 -17.972656 9.226562 -15.539062 7.3125 -12.59375 Z M 5.984375 -10.4375 "/></g></g></g><g fill="#c6605d" fill-opacity="1"><g transform="translate(264.531548, 190.448483)"><g><path d="M 4.4375 0.53125 C 3.4375 0.53125 2.601562 0.285156 1.9375 -0.203125 C 1.269531 -0.691406 0.9375 -1.546875 0.9375 -2.765625 C 0.9375 -3.910156 1.367188 -5.269531 2.234375 -6.84375 C 3.097656 -8.414062 4.179688 -9.765625 5.484375 -10.890625 C 6.796875 -12.023438 8.09375 -12.59375 9.375 -12.59375 C 10.03125 -12.59375 10.515625 -12.421875 10.828125 -12.078125 C 11.148438 -11.742188 11.3125 -11.3125 11.3125 -10.78125 C 11.3125 -9.84375 10.859375 -8.894531 9.953125 -7.9375 C 9.054688 -6.988281 7.976562 -6.203125 6.71875 -5.578125 C 5.457031 -4.960938 4.375 -4.65625 3.46875 -4.65625 C 3.207031 -4.070312 3.078125 -3.523438 3.078125 -3.015625 C 3.078125 -2.304688 3.191406 -1.742188 3.421875 -1.328125 C 3.660156 -0.910156 4.128906 -0.703125 4.828125 -0.703125 C 5.828125 -0.703125 6.769531 -0.96875 7.65625 -1.5 C 8.550781 -2.039062 9.359375 -2.707031 10.078125 -3.5 C 10.804688 -4.289062 11.585938 -5.28125 12.421875 -6.46875 C 12.515625 -6.59375 12.609375 -6.65625 12.703125 -6.65625 C 12.773438 -6.65625 12.832031 -6.609375 12.875 -6.515625 C 12.925781 -6.421875 12.953125 -6.3125 12.953125 -6.1875 C 12.953125 -6.03125 12.890625 -5.835938 12.765625 -5.609375 C 12.648438 -5.390625 12.441406 -5.082031 12.140625 -4.6875 C 11.273438 -3.5 10.453125 -2.53125 9.671875 -1.78125 C 8.890625 -1.039062 8.070312 -0.46875 7.21875 -0.0625 C 6.375 0.332031 5.445312 0.53125 4.4375 0.53125 Z M 3.78125 -5.359375 C 4.550781 -5.398438 5.4375 -5.75 6.4375 -6.40625 C 7.4375 -7.0625 8.304688 -7.796875 9.046875 -8.609375 C 9.785156 -9.421875 10.15625 -10.070312 10.15625 -10.5625 C 10.15625 -10.894531 10.015625 -11.0625 9.734375 -11.0625 C 9.242188 -11.0625 8.613281 -10.78125 7.84375 -10.21875 C 7.070312 -9.65625 6.3125 -8.929688 5.5625 -8.046875 C 4.8125 -7.160156 4.21875 -6.265625 3.78125 -5.359375 Z M 3.78125 -5.359375 "/></g></g></g><g fill="#c6605d" fill-opacity="1"><g transform="translate(274.994194, 190.448483)"><g><path d="M 3.671875 0.28125 C 3.347656 0.28125 3.046875 0.226562 2.765625 0.125 C 2.484375 0.0195312 2.34375 -0.101562 2.34375 -0.25 C 2.34375 -0.289062 2.351562 -0.320312 2.375 -0.34375 L 3.046875 -1.5 C 4.117188 -3.300781 5 -4.878906 5.6875 -6.234375 C 6.375 -7.585938 6.925781 -8.972656 7.34375 -10.390625 C 7.394531 -10.535156 7.421875 -10.703125 7.421875 -10.890625 C 7.421875 -11.023438 7.382812 -11.117188 7.3125 -11.171875 C 7.238281 -11.234375 7.125 -11.265625 6.96875 -11.265625 C 6.664062 -11.265625 6.28125 -11 5.8125 -10.46875 C 5.34375 -9.945312 4.6875 -9.070312 3.84375 -7.84375 C 3.125 -6.789062 2.296875 -5.625 1.359375 -4.34375 C 1.171875 -4.082031 1.046875 -3.953125 0.984375 -3.953125 C 0.910156 -3.953125 0.851562 -4.007812 0.8125 -4.125 C 0.78125 -4.25 0.765625 -4.378906 0.765625 -4.515625 C 0.765625 -4.722656 0.789062 -4.863281 0.84375 -4.9375 C 2.03125 -6.632812 2.765625 -7.71875 3.046875 -8.1875 L 5.671875 -12.421875 C 5.742188 -12.535156 5.910156 -12.628906 6.171875 -12.703125 C 6.441406 -12.773438 6.695312 -12.8125 6.9375 -12.8125 C 7.300781 -12.8125 7.691406 -12.722656 8.109375 -12.546875 C 8.535156 -12.367188 8.890625 -12.128906 9.171875 -11.828125 C 9.453125 -11.523438 9.59375 -11.195312 9.59375 -10.84375 C 9.59375 -10.445312 9.492188 -10.015625 9.296875 -9.546875 C 9.097656 -9.085938 8.8125 -8.507812 8.4375 -7.8125 C 8.101562 -7.195312 7.878906 -6.765625 7.765625 -6.515625 C 8.816406 -7.867188 9.890625 -9.035156 10.984375 -10.015625 C 12.085938 -10.992188 13.101562 -11.484375 14.03125 -11.484375 C 14.632812 -11.484375 15.066406 -11.265625 15.328125 -10.828125 C 15.585938 -10.398438 15.71875 -9.847656 15.71875 -9.171875 C 15.71875 -8.703125 15.671875 -8.226562 15.578125 -7.75 C 15.484375 -7.269531 15.363281 -6.867188 15.21875 -6.546875 L 14.875 -5.703125 C 15.8125 -6.753906 16.503906 -7.519531 16.953125 -8 C 17.410156 -8.476562 17.753906 -8.820312 17.984375 -9.03125 C 18.359375 -9.382812 18.804688 -9.722656 19.328125 -10.046875 C 19.859375 -10.367188 20.359375 -10.53125 20.828125 -10.53125 C 21.265625 -10.53125 21.613281 -10.382812 21.875 -10.09375 C 22.132812 -9.800781 22.265625 -9.363281 22.265625 -8.78125 C 22.265625 -8.5 22.203125 -7.972656 22.078125 -7.203125 C 22.054688 -7.046875 21.992188 -6.535156 21.890625 -5.671875 C 21.785156 -4.804688 21.734375 -4.046875 21.734375 -3.390625 C 21.734375 -2.804688 21.785156 -2.351562 21.890625 -2.03125 C 21.992188 -1.707031 22.148438 -1.546875 22.359375 -1.546875 C 22.660156 -1.546875 23.125 -1.875 23.75 -2.53125 C 24.382812 -3.195312 25.179688 -4.125 26.140625 -5.3125 C 26.753906 -6.082031 27.128906 -6.46875 27.265625 -6.46875 C 27.335938 -6.46875 27.40625 -6.441406 27.46875 -6.390625 C 27.539062 -6.347656 27.578125 -6.28125 27.578125 -6.1875 C 27.578125 -6.03125 27.25 -5.5 26.59375 -4.59375 C 25.945312 -3.695312 25.390625 -2.984375 24.921875 -2.453125 C 24.265625 -1.703125 23.640625 -1.085938 23.046875 -0.609375 C 22.453125 -0.128906 21.898438 0.109375 21.390625 0.109375 C 20.753906 0.109375 20.3125 -0.195312 20.0625 -0.8125 C 19.820312 -1.4375 19.703125 -2.273438 19.703125 -3.328125 C 19.703125 -4.046875 19.738281 -4.753906 19.8125 -5.453125 C 19.851562 -6.347656 19.875 -6.96875 19.875 -7.3125 C 19.875 -7.851562 19.832031 -8.234375 19.75 -8.453125 C 19.675781 -8.671875 19.546875 -8.78125 19.359375 -8.78125 C 18.984375 -8.78125 18.523438 -8.546875 17.984375 -8.078125 C 17.453125 -7.617188 16.765625 -6.863281 15.921875 -5.8125 C 15.578125 -5.363281 15.226562 -4.875 14.875 -4.34375 C 14.519531 -3.820312 14.191406 -3.316406 13.890625 -2.828125 C 13.472656 -2.128906 13.21875 -1.710938 13.125 -1.578125 C 12.84375 -1.242188 12.554688 -0.992188 12.265625 -0.828125 C 11.972656 -0.671875 11.722656 -0.59375 11.515625 -0.59375 C 11.304688 -0.59375 11.132812 -0.660156 11 -0.796875 C 10.875 -0.941406 10.8125 -1.144531 10.8125 -1.40625 C 10.8125 -1.59375 10.867188 -1.859375 10.984375 -2.203125 C 11.128906 -2.554688 11.285156 -2.925781 11.453125 -3.3125 C 11.628906 -3.695312 11.789062 -4.0625 11.9375 -4.40625 C 12.519531 -5.664062 12.984375 -6.722656 13.328125 -7.578125 C 13.679688 -8.429688 13.859375 -9.066406 13.859375 -9.484375 C 13.859375 -9.765625 13.800781 -10.003906 13.6875 -10.203125 C 13.570312 -10.398438 13.394531 -10.5 13.15625 -10.5 C 12.90625 -10.5 12.507812 -10.316406 11.96875 -9.953125 C 11.4375 -9.597656 10.957031 -9.1875 10.53125 -8.71875 C 9.925781 -8.082031 9.203125 -7.21875 8.359375 -6.125 C 7.585938 -5.09375 6.851562 -4.015625 6.15625 -2.890625 C 5.457031 -1.773438 4.898438 -0.8125 4.484375 0 C 4.390625 0.1875 4.117188 0.28125 3.671875 0.28125 Z M 3.671875 0.28125 "/></g></g></g><g fill="#c6605d" fill-opacity="1"><g transform="translate(102.38148, 236.064712)"><g><path d="M 4.703125 -4.265625 L 7.46875 -4.265625 L 7.46875 -0.3125 C 7.039062 -0.164062 6.601562 -0.0625 6.15625 0 C 5.707031 0.0703125 5.191406 0.109375 4.609375 0.109375 C 3.367188 0.109375 2.40625 -0.253906 1.71875 -0.984375 C 1.039062 -1.722656 0.703125 -2.753906 0.703125 -4.078125 C 0.703125 -4.921875 0.867188 -5.660156 1.203125 -6.296875 C 1.546875 -6.929688 2.035156 -7.414062 2.671875 -7.75 C 3.304688 -8.09375 4.054688 -8.265625 4.921875 -8.265625 C 5.785156 -8.265625 6.59375 -8.101562 7.34375 -7.78125 L 6.984375 -6.9375 C 6.242188 -7.25 5.535156 -7.40625 4.859375 -7.40625 C 3.867188 -7.40625 3.09375 -7.109375 2.53125 -6.515625 C 1.976562 -5.929688 1.703125 -5.117188 1.703125 -4.078125 C 1.703125 -2.972656 1.96875 -2.132812 2.5 -1.5625 C 3.039062 -1 3.832031 -0.71875 4.875 -0.71875 C 5.4375 -0.71875 5.984375 -0.78125 6.515625 -0.90625 L 6.515625 -3.421875 L 4.703125 -3.421875 Z M 4.703125 -4.265625 "/></g></g></g><g fill="#c6605d" fill-opacity="1"><g transform="translate(113.707304, 236.064712)"><g><path d="M 1.125 0 L 1.125 -8.140625 L 2.0625 -8.140625 L 2.0625 -0.859375 L 5.65625 -0.859375 L 5.65625 0 Z M 1.125 0 "/></g></g></g><g fill="#c6605d" fill-opacity="1"><g transform="translate(122.652665, 236.064712)"><g><path d="M 8.1875 -4.078125 C 8.1875 -2.773438 7.851562 -1.75 7.1875 -1 C 6.53125 -0.257812 5.617188 0.109375 4.453125 0.109375 C 3.253906 0.109375 2.328125 -0.253906 1.671875 -0.984375 C 1.023438 -1.722656 0.703125 -2.757812 0.703125 -4.09375 C 0.703125 -5.414062 1.023438 -6.441406 1.671875 -7.171875 C 2.328125 -7.898438 3.257812 -8.265625 4.46875 -8.265625 C 5.632812 -8.265625 6.546875 -7.894531 7.203125 -7.15625 C 7.859375 -6.414062 8.1875 -5.390625 8.1875 -4.078125 Z M 1.703125 -4.078125 C 1.703125 -2.972656 1.9375 -2.132812 2.40625 -1.5625 C 2.875 -1 3.554688 -0.71875 4.453125 -0.71875 C 5.347656 -0.71875 6.023438 -1 6.484375 -1.5625 C 6.953125 -2.132812 7.1875 -2.972656 7.1875 -4.078125 C 7.1875 -5.171875 6.957031 -6 6.5 -6.5625 C 6.039062 -7.132812 5.363281 -7.421875 4.46875 -7.421875 C 3.5625 -7.421875 2.875 -7.132812 2.40625 -6.5625 C 1.9375 -6 1.703125 -5.171875 1.703125 -4.078125 Z M 1.703125 -4.078125 "/></g></g></g><g fill="#c6605d" fill-opacity="1"><g transform="translate(134.55692, 236.064712)"><g><path d="M 1.125 -8.140625 L 3.421875 -8.140625 C 4.503906 -8.140625 5.285156 -7.976562 5.765625 -7.65625 C 6.242188 -7.332031 6.484375 -6.820312 6.484375 -6.125 C 6.484375 -5.644531 6.347656 -5.25 6.078125 -4.9375 C 5.816406 -4.625 5.425781 -4.421875 4.90625 -4.328125 L 4.90625 -4.265625 C 6.144531 -4.054688 6.765625 -3.40625 6.765625 -2.3125 C 6.765625 -1.582031 6.515625 -1.015625 6.015625 -0.609375 C 5.523438 -0.203125 4.835938 0 3.953125 0 L 1.125 0 Z M 2.0625 -4.65625 L 3.625 -4.65625 C 4.289062 -4.65625 4.769531 -4.757812 5.0625 -4.96875 C 5.363281 -5.175781 5.515625 -5.53125 5.515625 -6.03125 C 5.515625 -6.488281 5.347656 -6.816406 5.015625 -7.015625 C 4.691406 -7.222656 4.171875 -7.328125 3.453125 -7.328125 L 2.0625 -7.328125 Z M 2.0625 -3.859375 L 2.0625 -0.8125 L 3.765625 -0.8125 C 4.421875 -0.8125 4.914062 -0.9375 5.25 -1.1875 C 5.582031 -1.445312 5.75 -1.847656 5.75 -2.390625 C 5.75 -2.890625 5.578125 -3.257812 5.234375 -3.5 C 4.898438 -3.738281 4.382812 -3.859375 3.6875 -3.859375 Z M 2.0625 -3.859375 "/></g></g></g><g fill="#c6605d" fill-opacity="1"><g transform="translate(144.970602, 236.064712)"><g><path d="M 6.234375 0 L 5.21875 -2.59375 L 1.953125 -2.59375 L 0.953125 0 L 0 0 L 3.21875 -8.171875 L 4.015625 -8.171875 L 7.21875 0 Z M 4.921875 -3.4375 L 3.984375 -5.96875 C 3.859375 -6.28125 3.734375 -6.671875 3.609375 -7.140625 C 3.523438 -6.785156 3.40625 -6.394531 3.25 -5.96875 L 2.296875 -3.4375 Z M 4.921875 -3.4375 "/></g></g></g><g fill="#c6605d" fill-opacity="1"><g transform="translate(155.211868, 236.064712)"><g><path d="M 1.125 0 L 1.125 -8.140625 L 2.0625 -8.140625 L 2.0625 -0.859375 L 5.65625 -0.859375 L 5.65625 0 Z M 1.125 0 "/></g></g></g><g fill="#c6605d" fill-opacity="1"><g transform="translate(164.157228, 236.064712)"><g/></g></g><g fill="#c6605d" fill-opacity="1"><g transform="translate(170.149256, 236.064712)"><g><path d="M 3.625 0 L 2.671875 0 L 2.671875 -7.296875 L 0.09375 -7.296875 L 0.09375 -8.140625 L 6.203125 -8.140625 L 6.203125 -7.296875 L 3.625 -7.296875 Z M 3.625 0 "/></g></g></g><g fill="#c6605d" fill-opacity="1"><g transform="translate(179.483944, 236.064712)"><g><path d="M 5.65625 0 L 1.125 0 L 1.125 -8.140625 L 5.65625 -8.140625 L 5.65625 -7.296875 L 2.0625 -7.296875 L 2.0625 -4.671875 L 5.4375 -4.671875 L 5.4375 -3.84375 L 2.0625 -3.84375 L 2.0625 -0.84375 L 5.65625 -0.84375 Z M 5.65625 0 "/></g></g></g><g fill="#c6605d" fill-opacity="1"><g transform="translate(188.852002, 236.064712)"><g><path d="M 4.609375 -7.40625 C 3.710938 -7.40625 3.003906 -7.109375 2.484375 -6.515625 C 1.960938 -5.921875 1.703125 -5.109375 1.703125 -4.078125 C 1.703125 -3.003906 1.953125 -2.175781 2.453125 -1.59375 C 2.953125 -1.019531 3.664062 -0.734375 4.59375 -0.734375 C 5.164062 -0.734375 5.8125 -0.832031 6.53125 -1.03125 L 6.53125 -0.203125 C 5.96875 0.00390625 5.273438 0.109375 4.453125 0.109375 C 3.253906 0.109375 2.328125 -0.253906 1.671875 -0.984375 C 1.023438 -1.710938 0.703125 -2.742188 0.703125 -4.078125 C 0.703125 -4.921875 0.859375 -5.65625 1.171875 -6.28125 C 1.484375 -6.914062 1.9375 -7.40625 2.53125 -7.75 C 3.125 -8.09375 3.816406 -8.265625 4.609375 -8.265625 C 5.460938 -8.265625 6.210938 -8.109375 6.859375 -7.796875 L 6.453125 -6.984375 C 5.835938 -7.265625 5.222656 -7.40625 4.609375 -7.40625 Z M 4.609375 -7.40625 "/></g></g></g><g fill="#c6605d" fill-opacity="1"><g transform="translate(199.071026, 236.064712)"><g><path d="M 7.296875 0 L 6.359375 0 L 6.359375 -3.828125 L 2.0625 -3.828125 L 2.0625 0 L 1.125 0 L 1.125 -8.140625 L 2.0625 -8.140625 L 2.0625 -4.671875 L 6.359375 -4.671875 L 6.359375 -8.140625 L 7.296875 -8.140625 Z M 7.296875 0 "/></g></g></g><g fill="#c6605d" fill-opacity="1"><g transform="translate(210.508091, 236.064712)"><g><path d="M 7.484375 0 L 6.40625 0 L 1.953125 -6.828125 L 1.90625 -6.828125 C 1.96875 -6.023438 2 -5.289062 2 -4.625 L 2 0 L 1.125 0 L 1.125 -8.140625 L 2.1875 -8.140625 L 6.625 -1.34375 L 6.671875 -1.34375 C 6.660156 -1.4375 6.640625 -1.753906 6.609375 -2.296875 C 6.585938 -2.847656 6.582031 -3.238281 6.59375 -3.46875 L 6.59375 -8.140625 L 7.484375 -8.140625 Z M 7.484375 0 "/></g></g></g><g fill="#c6605d" fill-opacity="1"><g transform="translate(222.128696, 236.064712)"><g><path d="M 8.1875 -4.078125 C 8.1875 -2.773438 7.851562 -1.75 7.1875 -1 C 6.53125 -0.257812 5.617188 0.109375 4.453125 0.109375 C 3.253906 0.109375 2.328125 -0.253906 1.671875 -0.984375 C 1.023438 -1.722656 0.703125 -2.757812 0.703125 -4.09375 C 0.703125 -5.414062 1.023438 -6.441406 1.671875 -7.171875 C 2.328125 -7.898438 3.257812 -8.265625 4.46875 -8.265625 C 5.632812 -8.265625 6.546875 -7.894531 7.203125 -7.15625 C 7.859375 -6.414062 8.1875 -5.390625 8.1875 -4.078125 Z M 1.703125 -4.078125 C 1.703125 -2.972656 1.9375 -2.132812 2.40625 -1.5625 C 2.875 -1 3.554688 -0.71875 4.453125 -0.71875 C 5.347656 -0.71875 6.023438 -1 6.484375 -1.5625 C 6.953125 -2.132812 7.1875 -2.972656 7.1875 -4.078125 C 7.1875 -5.171875 6.957031 -6 6.5 -6.5625 C 6.039062 -7.132812 5.363281 -7.421875 4.46875 -7.421875 C 3.5625 -7.421875 2.875 -7.132812 2.40625 -6.5625 C 1.9375 -6 1.703125 -5.171875 1.703125 -4.078125 Z M 1.703125 -4.078125 "/></g></g></g><g fill="#c6605d" fill-opacity="1"><g transform="translate(234.032954, 236.064712)"><g><path d="M 1.125 0 L 1.125 -8.140625 L 2.0625 -8.140625 L 2.0625 -0.859375 L 5.65625 -0.859375 L 5.65625 0 Z M 1.125 0 "/></g></g></g><g fill="#c6605d" fill-opacity="1"><g transform="translate(242.978319, 236.064712)"><g><path d="M 8.1875 -4.078125 C 8.1875 -2.773438 7.851562 -1.75 7.1875 -1 C 6.53125 -0.257812 5.617188 0.109375 4.453125 0.109375 C 3.253906 0.109375 2.328125 -0.253906 1.671875 -0.984375 C 1.023438 -1.722656 0.703125 -2.757812 0.703125 -4.09375 C 0.703125 -5.414062 1.023438 -6.441406 1.671875 -7.171875 C 2.328125 -7.898438 3.257812 -8.265625 4.46875 -8.265625 C 5.632812 -8.265625 6.546875 -7.894531 7.203125 -7.15625 C 7.859375 -6.414062 8.1875 -5.390625 8.1875 -4.078125 Z M 1.703125 -4.078125 C 1.703125 -2.972656 1.9375 -2.132812 2.40625 -1.5625 C 2.875 -1 3.554688 -0.71875 4.453125 -0.71875 C 5.347656 -0.71875 6.023438 -1 6.484375 -1.5625 C 6.953125 -2.132812 7.1875 -2.972656 7.1875 -4.078125 C 7.1875 -5.171875 6.957031 -6 6.5 -6.5625 C 6.039062 -7.132812 5.363281 -7.421875 4.46875 -7.421875 C 3.5625 -7.421875 2.875 -7.132812 2.40625 -6.5625 C 1.9375 -6 1.703125 -5.171875 1.703125 -4.078125 Z M 1.703125 -4.078125 "/></g></g></g><g fill="#c6605d" fill-opacity="1"><g transform="translate(254.882577, 236.064712)"><g><path d="M 4.703125 -4.265625 L 7.46875 -4.265625 L 7.46875 -0.3125 C 7.039062 -0.164062 6.601562 -0.0625 6.15625 0 C 5.707031 0.0703125 5.191406 0.109375 4.609375 0.109375 C 3.367188 0.109375 2.40625 -0.253906 1.71875 -0.984375 C 1.039062 -1.722656 0.703125 -2.753906 0.703125 -4.078125 C 0.703125 -4.921875 0.867188 -5.660156 1.203125 -6.296875 C 1.546875 -6.929688 2.035156 -7.414062 2.671875 -7.75 C 3.304688 -8.09375 4.054688 -8.265625 4.921875 -8.265625 C 5.785156 -8.265625 6.59375 -8.101562 7.34375 -7.78125 L 6.984375 -6.9375 C 6.242188 -7.25 5.535156 -7.40625 4.859375 -7.40625 C 3.867188 -7.40625 3.09375 -7.109375 2.53125 -6.515625 C 1.976562 -5.929688 1.703125 -5.117188 1.703125 -4.078125 C 1.703125 -2.972656 1.96875 -2.132812 2.5 -1.5625 C 3.039062 -1 3.832031 -0.71875 4.875 -0.71875 C 5.4375 -0.71875 5.984375 -0.78125 6.515625 -0.90625 L 6.515625 -3.421875 L 4.703125 -3.421875 Z M 4.703125 -4.265625 "/></g></g></g><g fill="#c6605d" fill-opacity="1"><g transform="translate(266.208405, 236.064712)"><g><path d="M 3.1875 -4.078125 L 5.359375 -8.140625 L 6.390625 -8.140625 L 3.671875 -3.15625 L 3.671875 0 L 2.71875 0 L 2.71875 -3.109375 L 0 -8.140625 L 1.03125 -8.140625 Z M 3.1875 -4.078125 "/></g></g></g></svg>